<svg width="960" height="600" viewBox="0 0 960 600" fill="none" xmlns="http://www.w3.org/2000/svg">
  <defs>
    <!-- Fonts -->
    <style type="text/css"><![CDATA[
      @import url('https://fonts.googleapis.com/css2?family=Poppins:wght@600;700&family=Fira+Code:wght@500;700&display=swap');
      
      .hud-title {
        font-family: 'Poppins', sans-serif;
        font-weight: 700;
        font-size: 14px;
        fill: #73d2de;
        letter-spacing: 3px;
      }
      .tier-label {
        font-family: 'Fira Code', monospace;
        font-weight: 700;
        font-size: 9px;
        letter-spacing: 1px;
      }
      
      /* Subtle micro-animations */
      @keyframes float1 { 0%, 100% { transform: translateY(0px); } 50% { transform: translateY(-3.5px); } }
      @keyframes float2 { 0%, 100% { transform: translateY(0px); } 50% { transform: translateY(-2.5px); } }
      @keyframes float3 { 0%, 100% { transform: translateY(0px); } 50% { transform: translateY(-4px); } }
      @keyframes float4 { 0%, 100% { transform: translateY(0px); } 50% { transform: translateY(-2px); } }
      
      .float-1 { animation: float1 3.5s ease-in-out infinite; }
      .float-2 { animation: float2 3.8s ease-in-out infinite; }
      .float-3 { animation: float3 4.2s ease-in-out infinite; }
      .float-4 { animation: float4 3.2s ease-in-out infinite; }
      
      @keyframes pulse-glow { 0%, 100% { opacity: 0.25; } 50% { opacity: 0.7; } }
      .glow-ring { animation: pulse-glow 3s ease-in-out infinite alternate; }
    ]]></style>

    <!-- Gradients -->
    <linearGradient id="cyber-border" x1="0" y1="0" x2="960" y2="600" gradientUnits="userSpaceOnUse">
      <stop stop-color="#7b2ff7" />
      <stop offset="0.5" stop-color="#021120" />
      <stop offset="1" stop-color="#73d2de" />
    </linearGradient>
    
    <linearGradient id="neon-glow" x1="480" y1="40" x2="480" y2="520" gradientUnits="userSpaceOnUse">
      <stop stop-color="#7b2ff7" stop-opacity="0.25" />
      <stop offset="1" stop-color="#73d2de" stop-opacity="0.03" />
    </linearGradient>
    
    <linearGradient id="line-grad-purple" x1="0" y1="0" x2="960" y2="0" gradientUnits="userSpaceOnUse">
      <stop stop-color="#7b2ff7" stop-opacity="0.8" />
      <stop offset="1" stop-color="#7b2ff7" stop-opacity="0.15" />
    </linearGradient>

    <linearGradient id="line-grad-cyan" x1="0" y1="0" x2="960" y2="0" gradientUnits="userSpaceOnUse">
      <stop stop-color="#73d2de" stop-opacity="0.8" />
      <stop offset="1" stop-color="#73d2de" stop-opacity="0.15" />
    </linearGradient>
  </defs>

  <!-- Dark cyber theme background -->
  <rect width="960" height="600" rx="12" fill="#020810" stroke="url(#cyber-border)" stroke-width="1.5" />

  <!-- Header Section -->
  <g transform="translate(30, 40)">
    <text class="hud-title">TECHNICAL ARCHITECTURE PYRAMID</text>
    <line x1="0" y1="12" x2="900" y2="12" stroke="#152233" stroke-width="1" />
  </g>

  <!-- Pyramid Background Neon Fill -->
  <polygon points="480,40 20,520 940,520" fill="url(#neon-glow)" />

  <!-- Pyramid Border Outlines -->
  <line x1="480" y1="40" x2="20" y2="520" stroke="#7b2ff7" stroke-width="2" opacity="0.8" />
  <line x1="480" y1="40" x2="940" y2="520" stroke="#73d2de" stroke-width="2" opacity="0.8" />
  <line x1="20" y1="520" x2="940" y2="520" stroke="#7b2ff7" stroke-width="2" opacity="0.8" />

  <!-- Horizontal Glass Shelves -->
  <!-- Tier 1 Shelf (Y=160) -->
  <line x1="365" y1="160" x2="595" y2="160" stroke="#7b2ff7" stroke-width="2" opacity="0.95" />
  <line x1="365" y1="160" x2="595" y2="160" stroke="#7b2ff7" stroke-width="6" opacity="0.25" stroke-linecap="round" />
  <!-- Tier 2 Shelf (Y=280) -->
  <line x1="250" y1="280" x2="710" y2="280" stroke="#73d2de" stroke-width="2" opacity="0.95" />
  <line x1="250" y1="280" x2="710" y2="280" stroke="#73d2de" stroke-width="6" opacity="0.25" stroke-linecap="round" />
  <!-- Tier 3 Shelf (Y=400) -->
  <line x1="135" y1="400" x2="825" y2="400" stroke="#7b2ff7" stroke-width="2" opacity="0.95" />
  <line x1="135" y1="400" x2="825" y2="400" stroke="#7b2ff7" stroke-width="6" opacity="0.25" stroke-linecap="round" />

  <!-- Tier Labels with HUD lines -->
  <!-- T1 Label -->
  <path d="M 605 160 L 640 160 L 655 145 L 900 145" stroke="url(#line-grad-cyan)" stroke-width="0.8" fill="none" />
  <circle cx="605" cy="160" r="2.5" fill="#73d2de" />
  <text class="tier-label" x="660" y="140" fill="#73d2de">T1 // CORE LANGUAGES</text>

  <!-- T2 Label -->
  <path d="M 720 280 L 755 280 L 770 265 L 900 265" stroke="url(#line-grad-purple)" stroke-width="0.8" fill="none" />
  <circle cx="720" cy="280" r="2.5" fill="#7b2ff7" />
  <text class="tier-label" x="775" y="260" fill="#7b2ff7">T2 // WEB &amp; FRAMEWORKS</text>

  <!-- T3 Label -->
  <path d="M 835 400 L 860 400 L 875 385 L 900 385" stroke="url(#line-grad-cyan)" stroke-width="0.8" fill="none" />
  <circle cx="835" cy="400" r="2.5" fill="#73d2de" />
  <text class="tier-label" x="900" y="380" fill="#73d2de" text-anchor="end">T3 // DATABASES &amp; UI LIBRARIES</text>

  <!-- T4 Label -->
  <text class="tier-label" x="900" y="505" fill="#7b2ff7" text-anchor="end">T4 // DEVOPS, UTILITIES &amp; FRONTEND CORE</text>

  <!-- Center dashed blueprint guide line -->
  <line x1="480" y1="40" x2="480" y2="520" stroke="#152233" stroke-width="1" stroke-dasharray="2 4" />

  <!-- Icons container -->
  
    <!-- Icon: javascript -->
    <g class="float-2" style="animation-delay: 0.1s;">
      <!-- Glowing circle border around icon -->
      <circle cx="423" cy="120" r="17" fill="#060c14" stroke="#1c2535" stroke-width="1" />
      <circle cx="423" cy="120" r="17" fill="none" stroke="#F7DF1E" stroke-width="1.2" opacity="0.35" class="glow-ring" />
      
      <!-- Icon path -->
      <g transform="translate(411, 108) scale(1)" fill="#F7DF1E">
        <path d="M0 0h24v24H0V0zm22.034 18.276c-.175-1.095-.888-2.015-3.003-2.873-.736-.345-1.554-.585-1.797-1.14-.091-.33-.105-.51-.046-.705.15-.646.915-.84 1.515-.66.39.12.75.42.976.9 1.034-.676 1.034-.676 1.755-1.125-.27-.42-.404-.601-.586-.78-.63-.705-1.469-1.065-2.834-1.034l-.705.089c-.676.165-1.32.525-1.71 1.005-1.14 1.291-.811 3.541.569 4.471 1.365 1.02 3.361 1.244 3.616 2.205.24 1.17-.87 1.545-1.966 1.41-.811-.18-1.26-.586-1.755-1.336l-1.83 1.051c.21.48.45.689.81 1.109 1.74 1.756 6.09 1.666 6.871-1.004.029-.09.24-.705.074-1.65l.046.067zm-8.983-7.245h-2.248c0 1.938-.009 3.864-.009 5.805 0 1.232.063 2.363-.138 2.711-.33.689-1.18.601-1.566.48-.396-.196-.597-.466-.83-.855-.063-.105-.11-.196-.127-.196l-1.825 1.125c.305.63.75 1.172 1.324 1.517.855.51 2.004.675 3.207.405.783-.226 1.458-.691 1.811-1.411.51-.93.402-2.07.397-3.346.012-2.054 0-4.109 0-6.179l.004-.056z"/>
      </g>
      
      <!-- Permanently visible label underneath the icon for high visibility -->
      <text x="423" y="146" font-family="Arial, sans-serif" font-size="7" font-weight="700" fill="#ffffff" text-anchor="middle">JAVASCRIPT</text>
    </g>
    <!-- Icon: typescript -->
    <g class="float-3" style="animation-delay: 0.2s;">
      <!-- Glowing circle border around icon -->
      <circle cx="461" cy="120" r="17" fill="#060c14" stroke="#1c2535" stroke-width="1" />
      <circle cx="461" cy="120" r="17" fill="none" stroke="#3178C6" stroke-width="1.2" opacity="0.35" class="glow-ring" />
      
      <!-- Icon path -->
      <g transform="translate(449, 108) scale(1)" fill="#3178C6">
        <path d="M1.125 0C.502 0 0 .502 0 1.125v21.75C0 23.498.502 24 1.125 24h21.75c.623 0 1.125-.502 1.125-1.125V1.125C24 .502 23.498 0 22.875 0zm17.363 9.75c.612 0 1.154.037 1.627.111a6.38 6.38 0 0 1 1.306.34v2.458a3.95 3.95 0 0 0-.643-.361 5.093 5.093 0 0 0-.717-.26 5.453 5.453 0 0 0-1.426-.2c-.3 0-.573.028-.819.086a2.1 2.1 0 0 0-.623.242c-.17.104-.3.229-.393.374a.888.888 0 0 0-.14.49c0 .196.053.373.156.529.104.156.252.304.443.444s.423.276.696.41c.273.135.582.274.926.416.47.197.892.407 1.266.628.374.222.695.473.963.753.268.279.472.598.614.957.142.359.214.776.214 1.253 0 .657-.125 1.21-.373 1.656a3.033 3.033 0 0 1-1.012 1.085 4.38 4.38 0 0 1-1.487.596c-.566.12-1.163.18-1.79.18a9.916 9.916 0 0 1-1.84-.164 5.544 5.544 0 0 1-1.512-.493v-2.63a5.033 5.033 0 0 0 3.237 1.2c.333 0 .624-.03.872-.09.249-.06.456-.144.623-.25.166-.108.29-.234.373-.38a1.023 1.023 0 0 0-.074-1.089 2.12 2.12 0 0 0-.537-.5 5.597 5.597 0 0 0-.807-.444 27.72 27.72 0 0 0-1.007-.436c-.918-.383-1.602-.852-2.053-1.405-.45-.553-.676-1.222-.676-2.005 0-.614.123-1.141.369-1.582.246-.441.58-.804 1.004-1.089a4.494 4.494 0 0 1 1.47-.629 7.536 7.536 0 0 1 1.77-.201zm-15.113.188h9.563v2.166H9.506v9.646H6.789v-9.646H3.375z"/>
      </g>
      
      <!-- Permanently visible label underneath the icon for high visibility -->
      <text x="461" y="146" font-family="Arial, sans-serif" font-size="7" font-weight="700" fill="#ffffff" text-anchor="middle">TYPESCRIPT</text>
    </g>
    <!-- Icon: python -->
    <g class="float-4" style="animation-delay: 0.30000000000000004s;">
      <!-- Glowing circle border around icon -->
      <circle cx="499" cy="120" r="17" fill="#060c14" stroke="#1c2535" stroke-width="1" />
      <circle cx="499" cy="120" r="17" fill="none" stroke="#3776AB" stroke-width="1.2" opacity="0.35" class="glow-ring" />
      
      <!-- Icon path -->
      <g transform="translate(487, 108) scale(1)" fill="#3776AB">
        <path d="M14.25.18l.9.2.73.26.59.3.45.32.34.34.25.34.16.33.1.3.04.26.02.2-.01.13V8.5l-.05.63-.13.55-.21.46-.26.38-.3.31-.33.25-.35.19-.35.14-.33.1-.3.07-.26.04-.21.02H8.77l-.69.05-.59.14-.5.22-.41.27-.33.32-.27.35-.2.36-.15.37-.1.35-.07.32-.04.27-.02.21v3.06H3.17l-.21-.03-.28-.07-.32-.12-.35-.18-.36-.26-.36-.36-.35-.46-.32-.59-.28-.73-.21-.88-.14-1.05-.05-1.23.06-1.22.16-1.04.24-.87.32-.71.36-.57.4-.44.42-.33.42-.24.4-.16.36-.1.32-.05.24-.01h.16l.06.01h8.16v-.83H6.18l-.01-2.75-.02-.37.05-.34.11-.31.17-.28.25-.26.31-.23.38-.2.44-.18.51-.15.58-.12.64-.1.71-.06.77-.04.84-.02 1.27.05zm-6.3 1.98l-.23.33-.08.41.08.41.23.34.33.22.41.09.41-.09.33-.22.23-.34.08-.41-.08-.41-.23-.33-.33-.22-.41-.09-.41.09zm13.09 3.95l.28.06.32.12.35.18.36.27.36.35.35.47.32.59.28.73.21.88.14 1.04.05 1.23-.06 1.23-.16 1.04-.24.86-.32.71-.36.57-.4.45-.42.33-.42.24-.4.16-.36.09-.32.05-.24.02-.16-.01h-8.22v.82h5.84l.01 2.76.02.36-.05.34-.11.31-.17.29-.25.25-.31.24-.38.2-.44.17-.51.15-.58.13-.64.09-.71.07-.77.04-.84.01-1.27-.04-1.07-.14-.9-.2-.73-.25-.59-.3-.45-.33-.34-.34-.25-.34-.16-.33-.1-.3-.04-.25-.02-.2.01-.13v-5.34l.05-.64.13-.54.21-.46.26-.38.3-.32.33-.24.35-.2.35-.14.33-.1.3-.06.26-.04.21-.02.13-.01h5.84l.69-.05.59-.14.5-.21.41-.28.33-.32.27-.35.2-.36.15-.36.1-.35.07-.32.04-.28.02-.21V6.07h2.09l.14.01zm-6.47 14.25l-.23.33-.08.41.08.41.23.33.33.23.41.08.41-.08.33-.23.23-.33.08-.41-.08-.41-.23-.33-.33-.23-.41-.08-.41.08z"/>
      </g>
      
      <!-- Permanently visible label underneath the icon for high visibility -->
      <text x="499" y="146" font-family="Arial, sans-serif" font-size="7" font-weight="700" fill="#ffffff" text-anchor="middle">PYTHON</text>
    </g>
    <!-- Icon: csharp -->
    <g class="float-1" style="animation-delay: 0.4s;">
      <!-- Glowing circle border around icon -->
      <circle cx="537" cy="120" r="17" fill="#060c14" stroke="#1c2535" stroke-width="1" />
      <circle cx="537" cy="120" r="17" fill="none" stroke="#239120" stroke-width="1.2" opacity="0.35" class="glow-ring" />
      
      <!-- Icon path -->
      <g transform="translate(525, 108) scale(1)" fill="#239120">
        <path d="M1.194 7.543v8.913c0 1.103.588 2.122 1.544 2.674l7.718 4.456a3.086 3.086 0 0 0 3.088 0l7.718-4.456a3.087 3.087 0 0 0 1.544-2.674V7.543a3.084 3.084 0 0 0-1.544-2.673L13.544.414a3.086 3.086 0 0 0-3.088 0L2.738 4.87a3.085 3.085 0 0 0-1.544 2.673Zm5.403 2.914v3.087a.77.77 0 0 0 .772.772.773.773 0 0 0 .772-.772.773.773 0 0 1 1.317-.546.775.775 0 0 1 .226.546 2.314 2.314 0 1 1-4.631 0v-3.087c0-.615.244-1.203.679-1.637a2.312 2.312 0 0 1 3.274 0c.434.434.678 1.023.678 1.637a.769.769 0 0 1-.226.545.767.767 0 0 1-1.091 0 .77.77 0 0 1-.226-.545.77.77 0 0 0-.772-.772.771.771 0 0 0-.772.772Zm12.35 3.087a.77.77 0 0 1-.772.772h-.772v.772a.773.773 0 0 1-1.544 0v-.772h-1.544v.772a.773.773 0 0 1-1.317.546.775.775 0 0 1-.226-.546v-.772H12a.771.771 0 1 1 0-1.544h.772v-1.543H12a.77.77 0 1 1 0-1.544h.772v-.772a.773.773 0 0 1 1.317-.546.775.775 0 0 1 .226.546v.772h1.544v-.772a.773.773 0 0 1 1.544 0v.772h.772a.772.772 0 0 1 0 1.544h-.772v1.543h.772a.776.776 0 0 1 .772.772Zm-3.088-2.315h-1.544v1.543h1.544v-1.543Z"/>
      </g>
      
      <!-- Permanently visible label underneath the icon for high visibility -->
      <text x="537" y="146" font-family="Arial, sans-serif" font-size="7" font-weight="700" fill="#ffffff" text-anchor="middle">C#</text>
    </g>
    <!-- Icon: react -->
    <g class="float-2" style="animation-delay: 0.5s;">
      <!-- Glowing circle border around icon -->
      <circle cx="375" cy="240" r="17" fill="#060c14" stroke="#1c2535" stroke-width="1" />
      <circle cx="375" cy="240" r="17" fill="none" stroke="#61DAFB" stroke-width="1.2" opacity="0.35" class="glow-ring" />
      
      <!-- Icon path -->
      <g transform="translate(363, 228) scale(1)" fill="#61DAFB">
        <path d="M14.23 12.004a2.236 2.236 0 0 1-2.235 2.236 2.236 2.236 0 0 1-2.236-2.236 2.236 2.236 0 0 1 2.235-2.236 2.236 2.236 0 0 1 2.236 2.236zm2.648-10.69c-1.346 0-3.107.96-4.888 2.622-1.78-1.653-3.542-2.602-4.887-2.602-.41 0-.783.093-1.106.278-1.375.793-1.683 3.264-.973 6.365C1.98 8.917 0 10.42 0 12.004c0 1.59 1.99 3.097 5.043 4.03-.704 3.113-.39 5.588.988 6.38.32.187.69.275 1.102.275 1.345 0 3.107-.96 4.888-2.624 1.78 1.654 3.542 2.603 4.887 2.603.41 0 .783-.09 1.106-.275 1.374-.792 1.683-3.263.973-6.365C22.02 15.096 24 13.59 24 12.004c0-1.59-1.99-3.097-5.043-4.032.704-3.11.39-5.587-.988-6.38-.318-.184-.688-.277-1.092-.278zm-.005 1.09v.006c.225 0 .406.044.558.127.666.382.955 1.835.73 3.704-.054.46-.142.945-.25 1.44-.96-.236-2.006-.417-3.107-.534-.66-.905-1.345-1.727-2.035-2.447 1.592-1.48 3.087-2.292 4.105-2.295zm-9.77.02c1.012 0 2.514.808 4.11 2.28-.686.72-1.37 1.537-2.02 2.442-1.107.117-2.154.298-3.113.538-.112-.49-.195-.964-.254-1.42-.23-1.868.054-3.32.714-3.707.19-.09.4-.127.563-.132zm4.882 3.05c.455.468.91.992 1.36 1.564-.44-.02-.89-.034-1.345-.034-.46 0-.915.01-1.36.034.44-.572.895-1.096 1.345-1.565zM12 8.1c.74 0 1.477.034 2.202.093.406.582.802 1.203 1.183 1.86.372.64.71 1.29 1.018 1.946-.308.655-.646 1.31-1.013 1.95-.38.66-.773 1.288-1.18 1.87-.728.063-1.466.098-2.21.098-.74 0-1.477-.035-2.202-.093-.406-.582-.802-1.204-1.183-1.86-.372-.64-.71-1.29-1.018-1.946.303-.657.646-1.313 1.013-1.954.38-.66.773-1.286 1.18-1.868.728-.064 1.466-.098 2.21-.098zm-3.635.254c-.24.377-.48.763-.704 1.16-.225.39-.435.782-.635 1.174-.265-.656-.49-1.31-.676-1.947.64-.15 1.315-.283 2.015-.386zm7.26 0c.695.103 1.365.23 2.006.387-.18.632-.405 1.282-.66 1.933-.2-.39-.41-.783-.64-1.174-.225-.392-.465-.774-.705-1.146zm3.063.675c.484.15.944.317 1.375.498 1.732.74 2.852 1.708 2.852 2.476-.005.768-1.125 1.74-2.857 2.475-.42.18-.88.342-1.355.493-.28-.958-.646-1.956-1.1-2.98.45-1.017.81-2.01 1.085-2.964zm-13.395.004c.278.96.645 1.957 1.1 2.98-.45 1.017-.812 2.01-1.086 2.964-.484-.15-.944-.318-1.37-.5-1.732-.737-2.852-1.706-2.852-2.474 0-.768 1.12-1.742 2.852-2.476.42-.18.88-.342 1.356-.494zm11.678 4.28c.265.657.49 1.312.676 1.948-.64.157-1.316.29-2.016.39.24-.375.48-.762.705-1.158.225-.39.435-.788.636-1.18zm-9.945.02c.2.392.41.783.64 1.175.23.39.465.772.705 1.143-.695-.102-1.365-.23-2.006-.386.18-.63.406-1.282.66-1.933zM17.92 16.32c.112.493.2.968.254 1.423.23 1.868-.054 3.32-.714 3.708-.147.09-.338.128-.563.128-1.012 0-2.514-.807-4.11-2.28.686-.72 1.37-1.536 2.02-2.44 1.107-.118 2.154-.3 3.113-.54zm-11.83.01c.96.234 2.006.415 3.107.532.66.905 1.345 1.727 2.035 2.446-1.595 1.483-3.092 2.295-4.11 2.295-.22-.005-.406-.05-.553-.132-.666-.38-.955-1.834-.73-3.703.054-.46.142-.944.25-1.438zm4.56.64c.44.02.89.034 1.345.034.46 0 .915-.01 1.36-.034-.44.572-.895 1.095-1.345 1.565-.455-.47-.91-.993-1.36-1.565z"/>
      </g>
      
      <!-- Permanently visible label underneath the icon for high visibility -->
      <text x="375" y="266" font-family="Arial, sans-serif" font-size="7" font-weight="700" fill="#ffffff" text-anchor="middle">REACT</text>
    </g>
    <!-- Icon: nextdotjs -->
    <g class="float-3" style="animation-delay: 0.6000000000000001s;">
      <!-- Glowing circle border around icon -->
      <circle cx="417" cy="240" r="17" fill="#060c14" stroke="#1c2535" stroke-width="1" />
      <circle cx="417" cy="240" r="17" fill="none" stroke="#FFFFFF" stroke-width="1.2" opacity="0.35" class="glow-ring" />
      
      <!-- Icon path -->
      <g transform="translate(405, 228) scale(1)" fill="#FFFFFF">
        <path d="M18.665 21.978C16.758 23.255 14.465 24 12 24 5.377 24 0 18.623 0 12S5.377 0 12 0s12 5.377 12 12c0 3.583-1.574 6.801-4.067 9.001L9.219 7.2H7.2v9.596h1.615V9.251l9.85 12.727Zm-3.332-8.533 1.6 2.061V7.2h-1.6v6.245Z"/>
      </g>
      
      <!-- Permanently visible label underneath the icon for high visibility -->
      <text x="417" y="266" font-family="Arial, sans-serif" font-size="7" font-weight="700" fill="#ffffff" text-anchor="middle">NEXT.JS</text>
    </g>
    <!-- Icon: nodedotjs -->
    <g class="float-4" style="animation-delay: 0.7000000000000001s;">
      <!-- Glowing circle border around icon -->
      <circle cx="459" cy="240" r="17" fill="#060c14" stroke="#1c2535" stroke-width="1" />
      <circle cx="459" cy="240" r="17" fill="none" stroke="#339933" stroke-width="1.2" opacity="0.35" class="glow-ring" />
      
      <!-- Icon path -->
      <g transform="translate(447, 228) scale(1)" fill="#339933">
        <path d="M11.998,24c-0.321,0-0.641-0.084-0.922-0.247l-2.936-1.737c-0.438-0.245-0.224-0.332-0.08-0.383 c0.585-0.203,0.703-0.25,1.328-0.604c0.065-0.037,0.151-0.023,0.218,0.017l2.256,1.339c0.082,0.045,0.197,0.045,0.272,0l8.795-5.076 c0.082-0.047,0.134-0.141,0.134-0.238V6.921c0-0.099-0.053-0.192-0.137-0.242l-8.791-5.072c-0.081-0.047-0.189-0.047-0.271,0 L3.075,6.68C2.99,6.729,2.936,6.825,2.936,6.921v10.15c0,0.097,0.054,0.189,0.139,0.235l2.409,1.392 c1.307,0.654,2.108-0.116,2.108-0.89V7.787c0-0.142,0.114-0.253,0.256-0.253h1.115c0.139,0,0.255,0.112,0.255,0.253v10.021 c0,1.745-0.95,2.745-2.604,2.745c-0.508,0-0.909,0-2.026-0.551L2.28,18.675c-0.57-0.329-0.922-0.945-0.922-1.604V6.921 c0-0.659,0.353-1.275,0.922-1.603l8.795-5.082c0.557-0.315,1.296-0.315,1.848,0l8.794,5.082c0.57,0.329,0.924,0.944,0.924,1.603 v10.15c0,0.659-0.354,1.273-0.924,1.604l-8.794,5.078C12.643,23.916,12.324,24,11.998,24z M19.099,13.993 c0-1.9-1.284-2.406-3.987-2.763c-2.731-0.361-3.009-0.548-3.009-1.187c0-0.528,0.235-1.233,2.258-1.233 c1.807,0,2.473,0.389,2.747,1.607c0.024,0.115,0.129,0.199,0.247,0.199h1.141c0.071,0,0.138-0.031,0.186-0.081 c0.048-0.054,0.074-0.123,0.067-0.196c-0.177-2.098-1.571-3.076-4.388-3.076c-2.508,0-4.004,1.058-4.004,2.833 c0,1.925,1.488,2.457,3.895,2.695c2.88,0.282,3.103,0.703,3.103,1.269c0,0.983-0.789,1.402-2.642,1.402 c-2.327,0-2.839-0.584-3.011-1.742c-0.02-0.124-0.126-0.215-0.253-0.215h-1.137c-0.141,0-0.254,0.112-0.254,0.253 c0,1.482,0.806,3.248,4.655,3.248C17.501,17.007,19.099,15.91,19.099,13.993z"/>
      </g>
      
      <!-- Permanently visible label underneath the icon for high visibility -->
      <text x="459" y="266" font-family="Arial, sans-serif" font-size="7" font-weight="700" fill="#ffffff" text-anchor="middle">NODE.JS</text>
    </g>
    <!-- Icon: express -->
    <g class="float-1" style="animation-delay: 0.8s;">
      <!-- Glowing circle border around icon -->
      <circle cx="501" cy="240" r="17" fill="#060c14" stroke="#1c2535" stroke-width="1" />
      <circle cx="501" cy="240" r="17" fill="none" stroke="#FFFFFF" stroke-width="1.2" opacity="0.35" class="glow-ring" />
      
      <!-- Icon path -->
      <g transform="translate(489, 228) scale(1)" fill="#FFFFFF">
        <path d="M24 18.588a1.529 1.529 0 01-1.895-.72l-3.45-4.771-.5-.667-4.003 5.444a1.466 1.466 0 01-1.802.708l5.158-6.92-4.798-6.251a1.595 1.595 0 011.9.666l3.576 4.83 3.596-4.81a1.435 1.435 0 011.788-.668L21.708 7.9l-2.522 3.283a.666.666 0 000 .994l4.804 6.412zM.002 11.576l.42-2.075c1.154-4.103 5.858-5.81 9.094-3.27 1.895 1.489 2.368 3.597 2.275 5.973H1.116C.943 16.447 4.005 19.009 7.92 17.7a4.078 4.078 0 002.582-2.876c.207-.666.548-.78 1.174-.588a5.417 5.417 0 01-2.589 3.957 6.272 6.272 0 01-7.306-.933 6.575 6.575 0 01-1.64-3.858c0-.235-.08-.455-.134-.666A88.33 88.33 0 010 11.577zm1.127-.286h9.654c-.06-3.076-2.001-5.258-4.59-5.278-2.882-.04-4.944 2.094-5.071 5.264z"/>
      </g>
      
      <!-- Permanently visible label underneath the icon for high visibility -->
      <text x="501" y="266" font-family="Arial, sans-serif" font-size="7" font-weight="700" fill="#ffffff" text-anchor="middle">EXPRESS</text>
    </g>
    <!-- Icon: dotnet -->
    <g class="float-2" style="animation-delay: 0.9s;">
      <!-- Glowing circle border around icon -->
      <circle cx="543" cy="240" r="17" fill="#060c14" stroke="#1c2535" stroke-width="1" />
      <circle cx="543" cy="240" r="17" fill="none" stroke="#512BD4" stroke-width="1.2" opacity="0.35" class="glow-ring" />
      
      <!-- Icon path -->
      <g transform="translate(531, 228) scale(1)" fill="#512BD4">
        <path d="M24 8.77h-2.468v7.565h-1.425V8.77h-2.462V7.53H24zm-6.852 7.565h-4.821V7.53h4.63v1.24h-3.205v2.494h2.953v1.234h-2.953v2.604h3.396zm-6.708 0H8.882L4.78 9.863a2.896 2.896 0 0 1-.258-.51h-.036c.032.189.048.592.048 1.21v5.772H3.157V7.53h1.659l3.965 6.32c.167.261.275.442.323.54h.024c-.04-.233-.06-.629-.06-1.185V7.529h1.372zm-8.703-.693a.868.829 0 0 1-.869.829.868.829 0 0 1-.868-.83.868.829 0 0 1 .868-.828.868.829 0 0 1 .869.829Z"/>
      </g>
      
      <!-- Permanently visible label underneath the icon for high visibility -->
      <text x="543" y="266" font-family="Arial, sans-serif" font-size="7" font-weight="700" fill="#ffffff" text-anchor="middle">ASP.NET CORE</text>
    </g>
    <!-- Icon: laravel -->
    <g class="float-3" style="animation-delay: 1s;">
      <!-- Glowing circle border around icon -->
      <circle cx="585" cy="240" r="17" fill="#060c14" stroke="#1c2535" stroke-width="1" />
      <circle cx="585" cy="240" r="17" fill="none" stroke="#FF2D20" stroke-width="1.2" opacity="0.35" class="glow-ring" />
      
      <!-- Icon path -->
      <g transform="translate(573, 228) scale(1)" fill="#FF2D20">
        <path d="M23.642 5.43a.364.364 0 01.014.1v5.149c0 .135-.073.26-.189.326l-4.323 2.49v4.934a.378.378 0 01-.188.326L9.93 23.949a.316.316 0 01-.066.027c-.008.002-.016.008-.024.01a.348.348 0 01-.192 0c-.011-.002-.02-.008-.03-.012-.02-.008-.042-.014-.062-.025L.533 18.755a.376.376 0 01-.189-.326V2.974c0-.033.005-.066.014-.098.003-.012.01-.02.014-.032a.369.369 0 01.023-.058c.004-.013.015-.022.023-.033l.033-.045c.012-.01.025-.018.037-.027.014-.012.027-.024.041-.034H.53L5.043.05a.375.375 0 01.375 0L9.93 2.647h.002c.015.01.027.021.04.033l.038.027c.013.014.02.03.033.045.008.011.02.021.025.033.01.02.017.038.024.058.003.011.01.021.013.032.01.031.014.064.014.098v9.652l3.76-2.164V5.527c0-.033.004-.066.013-.098.003-.01.01-.02.013-.032a.487.487 0 01.024-.059c.007-.012.018-.02.025-.033.012-.015.021-.03.033-.043.012-.012.025-.02.037-.028.014-.01.026-.023.041-.032h.001l4.513-2.598a.375.375 0 01.375 0l4.513 2.598c.016.01.027.021.042.031.012.01.025.018.036.028.013.014.022.03.034.044.008.012.019.021.024.033.011.02.018.04.024.06.006.01.012.021.015.032zm-.74 5.032V6.179l-1.578.908-2.182 1.256v4.283zm-4.51 7.75v-4.287l-2.147 1.225-6.126 3.498v4.325zM1.093 3.624v14.588l8.273 4.761v-4.325l-4.322-2.445-.002-.003H5.04c-.014-.01-.025-.021-.04-.031-.011-.01-.024-.018-.035-.027l-.001-.002c-.013-.012-.021-.025-.031-.04-.01-.011-.021-.022-.028-.036h-.002c-.008-.014-.013-.031-.02-.047-.006-.016-.014-.027-.018-.043a.49.49 0 01-.008-.057c-.002-.014-.006-.027-.006-.041V5.789l-2.18-1.257zM5.23.81L1.47 2.974l3.76 2.164 3.758-2.164zm1.956 13.505l2.182-1.256V3.624l-1.58.91-2.182 1.255v9.435zm11.581-10.95l-3.76 2.163 3.76 2.163 3.759-2.164zm-.376 4.978L16.21 7.087 14.63 6.18v4.283l2.182 1.256 1.58.908zm-8.65 9.654l5.514-3.148 2.756-1.572-3.757-2.163-4.323 2.489-3.941 2.27z"/>
      </g>
      
      <!-- Permanently visible label underneath the icon for high visibility -->
      <text x="585" y="266" font-family="Arial, sans-serif" font-size="7" font-weight="700" fill="#ffffff" text-anchor="middle">LARAVEL</text>
    </g>
    <!-- Icon: postgresql -->
    <g class="float-4" style="animation-delay: 1.1s;">
      <!-- Glowing circle border around icon -->
      <circle cx="282" cy="360" r="17" fill="#060c14" stroke="#1c2535" stroke-width="1" />
      <circle cx="282" cy="360" r="17" fill="none" stroke="#4169E1" stroke-width="1.2" opacity="0.35" class="glow-ring" />
      
      <!-- Icon path -->
      <g transform="translate(270, 348) scale(1)" fill="#4169E1">
        <path d="M23.5594 14.7228a.5269.5269 0 0 0-.0563-.1191c-.139-.2632-.4768-.3418-1.0074-.2321-1.6533.3411-2.2935.1312-2.5256-.0191 1.342-2.0482 2.445-4.522 3.0411-6.8297.2714-1.0507.7982-3.5237.1222-4.7316a1.5641 1.5641 0 0 0-.1509-.235C21.6931.9086 19.8007.0248 17.5099.0005c-1.4947-.0158-2.7705.3461-3.1161.4794a9.449 9.449 0 0 0-.5159-.0816 8.044 8.044 0 0 0-1.3114-.1278c-1.1822-.0184-2.2038.2642-3.0498.8406-.8573-.3211-4.7888-1.645-7.2219.0788C.9359 2.1526.3086 3.8733.4302 6.3043c.0409.818.5069 3.334 1.2423 5.7436.4598 1.5065.9387 2.7019 1.4334 3.582.553.9942 1.1259 1.5933 1.7143 1.7895.4474.1491 1.1327.1441 1.8581-.7279.8012-.9635 1.5903-1.8258 1.9446-2.2069.4351.2355.9064.3625 1.39.3772a.0569.0569 0 0 0 .0004.0041 11.0312 11.0312 0 0 0-.2472.3054c-.3389.4302-.4094.5197-1.5002.7443-.3102.064-1.1344.2339-1.1464.8115-.0025.1224.0329.2309.0919.3268.2269.4231.9216.6097 1.015.6331 1.3345.3335 2.5044.092 3.3714-.6787-.017 2.231.0775 4.4174.3454 5.0874.2212.5529.7618 1.9045 2.4692 1.9043.2505 0 .5263-.0291.8296-.0941 1.7819-.3821 2.5557-1.1696 2.855-2.9059.1503-.8707.4016-2.8753.5388-4.1012.0169-.0703.0357-.1207.057-.1362.0007-.0005.0697-.0471.4272.0307a.3673.3673 0 0 0 .0443.0068l.2539.0223.0149.001c.8468.0384 1.9114-.1426 2.5312-.4308.6438-.2988 1.8057-1.0323 1.5951-1.6698zM2.371 11.8765c-.7435-2.4358-1.1779-4.8851-1.2123-5.5719-.1086-2.1714.4171-3.6829 1.5623-4.4927 1.8367-1.2986 4.8398-.5408 6.108-.13-.0032.0032-.0066.0061-.0098.0094-2.0238 2.044-1.9758 5.536-1.9708 5.7495-.0002.0823.0066.1989.0162.3593.0348.5873.0996 1.6804-.0735 2.9184-.1609 1.1504.1937 2.2764.9728 3.0892.0806.0841.1648.1631.2518.2374-.3468.3714-1.1004 1.1926-1.9025 2.1576-.5677.6825-.9597.5517-1.0886.5087-.3919-.1307-.813-.5871-1.2381-1.3223-.4796-.839-.9635-2.0317-1.4155-3.5126zm6.0072 5.0871c-.1711-.0428-.3271-.1132-.4322-.1772.0889-.0394.2374-.0902.4833-.1409 1.2833-.2641 1.4815-.4506 1.9143-1.0002.0992-.126.2116-.2687.3673-.4426a.3549.3549 0 0 0 .0737-.1298c.1708-.1513.2724-.1099.4369-.0417.156.0646.3078.26.3695.4752.0291.1016.0619.2945-.0452.4444-.9043 1.2658-2.2216 1.2494-3.1676 1.0128zm2.094-3.988-.0525.141c-.133.3566-.2567.6881-.3334 1.003-.6674-.0021-1.3168-.2872-1.8105-.8024-.6279-.6551-.9131-1.5664-.7825-2.5004.1828-1.3079.1153-2.4468.079-3.0586-.005-.0857-.0095-.1607-.0122-.2199.2957-.2621 1.6659-.9962 2.6429-.7724.4459.1022.7176.4057.8305.928.5846 2.7038.0774 3.8307-.3302 4.7363-.084.1866-.1633.3629-.2311.5454zm7.3637 4.5725c-.0169.1768-.0358.376-.0618.5959l-.146.4383a.3547.3547 0 0 0-.0182.1077c-.0059.4747-.054.6489-.115.8693-.0634.2292-.1353.4891-.1794 1.0575-.11 1.4143-.8782 2.2267-2.4172 2.5565-1.5155.3251-1.7843-.4968-2.0212-1.2217a6.5824 6.5824 0 0 0-.0769-.2266c-.2154-.5858-.1911-1.4119-.1574-2.5551.0165-.5612-.0249-1.9013-.3302-2.6462.0044-.2932.0106-.5909.019-.8918a.3529.3529 0 0 0-.0153-.1126 1.4927 1.4927 0 0 0-.0439-.208c-.1226-.4283-.4213-.7866-.7797-.9351-.1424-.059-.4038-.1672-.7178-.0869.067-.276.1831-.5875.309-.9249l.0529-.142c.0595-.16.134-.3257.213-.5012.4265-.9476 1.0106-2.2453.3766-5.1772-.2374-1.0981-1.0304-1.6343-2.2324-1.5098-.7207.0746-1.3799.3654-1.7088.5321a5.6716 5.6716 0 0 0-.1958.1041c.0918-1.1064.4386-3.1741 1.7357-4.4823a4.0306 4.0306 0 0 1 .3033-.276.3532.3532 0 0 0 .1447-.0644c.7524-.5706 1.6945-.8506 2.802-.8325.4091.0067.8017.0339 1.1742.081 1.939.3544 3.2439 1.4468 4.0359 2.3827.8143.9623 1.2552 1.9315 1.4312 2.4543-1.3232-.1346-2.2234.1268-2.6797.779-.9926 1.4189.543 4.1729 1.2811 5.4964.1353.2426.2522.4522.2889.5413.2403.5825.5515.9713.7787 1.2552.0696.087.1372.1714.1885.245-.4008.1155-1.1208.3825-1.0552 1.717-.0123.1563-.0423.4469-.0834.8148-.0461.2077-.0702.4603-.0994.7662zm.8905-1.6211c-.0405-.8316.2691-.9185.5967-1.0105a2.8566 2.8566 0 0 0 .135-.0406 1.202 1.202 0 0 0 .1342.103c.5703.3765 1.5823.4213 3.0068.1344-.2016.1769-.5189.3994-.9533.6011-.4098.1903-1.0957.333-1.7473.3636-.7197.0336-1.0859-.0807-1.1721-.151zm.5695-9.2712c-.0059.3508-.0542.6692-.1054 1.0017-.055.3576-.112.7274-.1264 1.1762-.0142.4368.0404.8909.0932 1.3301.1066.887.216 1.8003-.2075 2.7014a3.5272 3.5272 0 0 1-.1876-.3856c-.0527-.1276-.1669-.3326-.3251-.6162-.6156-1.1041-2.0574-3.6896-1.3193-4.7446.3795-.5427 1.3408-.5661 2.1781-.463zm.2284 7.0137a12.3762 12.3762 0 0 0-.0853-.1074l-.0355-.0444c.7262-1.1995.5842-2.3862.4578-3.4385-.0519-.4318-.1009-.8396-.0885-1.2226.0129-.4061.0666-.7543.1185-1.0911.0639-.415.1288-.8443.1109-1.3505.0134-.0531.0188-.1158.0118-.1902-.0457-.4855-.5999-1.938-1.7294-3.253-.6076-.7073-1.4896-1.4972-2.6889-2.0395.5251-.1066 1.2328-.2035 2.0244-.1859 2.0515.0456 3.6746.8135 4.8242 2.2824a.908.908 0 0 1 .0667.1002c.7231 1.3556-.2762 6.2751-2.9867 10.5405zm-8.8166-6.1162c-.025.1794-.3089.4225-.6211.4225a.5821.5821 0 0 1-.0809-.0056c-.1873-.026-.3765-.144-.5059-.3156-.0458-.0605-.1203-.178-.1055-.2844.0055-.0401.0261-.0985.0925-.1488.1182-.0894.3518-.1226.6096-.0867.3163.0441.6426.1938.6113.4186zm7.9305-.4114c.0111.0792-.049.201-.1531.3102-.0683.0717-.212.1961-.4079.2232a.5456.5456 0 0 1-.075.0052c-.2935 0-.5414-.2344-.5607-.3717-.024-.1765.2641-.3106.5611-.352.297-.0414.6111.0088.6356.1851z"/>
      </g>
      
      <!-- Permanently visible label underneath the icon for high visibility -->
      <text x="282" y="386" font-family="Arial, sans-serif" font-size="7" font-weight="700" fill="#ffffff" text-anchor="middle">POSTGRESQL</text>
    </g>
    <!-- Icon: mongodb -->
    <g class="float-1" style="animation-delay: 1.2000000000000002s;">
      <!-- Glowing circle border around icon -->
      <circle cx="326" cy="360" r="17" fill="#060c14" stroke="#1c2535" stroke-width="1" />
      <circle cx="326" cy="360" r="17" fill="none" stroke="#47A248" stroke-width="1.2" opacity="0.35" class="glow-ring" />
      
      <!-- Icon path -->
      <g transform="translate(314, 348) scale(1)" fill="#47A248">
        <path d="M17.193 9.555c-1.264-5.58-4.252-7.414-4.573-8.115-.28-.394-.53-.954-.735-1.44-.036.495-.055.685-.523 1.184-.723.566-4.438 3.682-4.74 10.02-.282 5.912 4.27 9.435 4.888 9.884l.07.05A73.49 73.49 0 0111.91 24h.481c.114-1.032.284-2.056.51-3.07.417-.296.604-.463.85-.693a11.342 11.342 0 003.639-8.464c.01-.814-.103-1.662-.197-2.218zm-5.336 8.195s0-8.291.275-8.29c.213 0 .49 10.695.49 10.695-.381-.045-.765-1.76-.765-2.405z"/>
      </g>
      
      <!-- Permanently visible label underneath the icon for high visibility -->
      <text x="326" y="386" font-family="Arial, sans-serif" font-size="7" font-weight="700" fill="#ffffff" text-anchor="middle">MONGODB</text>
    </g>
    <!-- Icon: mysql -->
    <g class="float-2" style="animation-delay: 1.3s;">
      <!-- Glowing circle border around icon -->
      <circle cx="370" cy="360" r="17" fill="#060c14" stroke="#1c2535" stroke-width="1" />
      <circle cx="370" cy="360" r="17" fill="none" stroke="#4479A1" stroke-width="1.2" opacity="0.35" class="glow-ring" />
      
      <!-- Icon path -->
      <g transform="translate(358, 348) scale(1)" fill="#4479A1">
        <path d="M16.405 5.501c-.115 0-.193.014-.274.033v.013h.014c.054.104.146.18.214.273.054.107.1.214.154.32l.014-.015c.094-.066.14-.172.14-.333-.04-.047-.046-.094-.08-.14-.04-.067-.126-.1-.18-.153zM5.77 18.695h-.927a50.854 50.854 0 00-.27-4.41h-.008l-1.41 4.41H2.45l-1.4-4.41h-.01a72.892 72.892 0 00-.195 4.41H0c.055-1.966.192-3.81.41-5.53h1.15l1.335 4.064h.008l1.347-4.064h1.095c.242 2.015.384 3.86.428 5.53zm4.017-4.08c-.378 2.045-.876 3.533-1.492 4.46-.482.716-1.01 1.073-1.583 1.073-.153 0-.34-.046-.566-.138v-.494c.11.017.24.026.386.026.268 0 .483-.075.647-.222.197-.18.295-.382.295-.605 0-.155-.077-.47-.23-.944L6.23 14.615h.91l.727 2.36c.164.536.233.91.205 1.123.4-1.064.678-2.227.835-3.483zm12.325 4.08h-2.63v-5.53h.885v4.85h1.745zm-3.32.135l-1.016-.5c.09-.076.177-.158.255-.25.433-.506.648-1.258.648-2.253 0-1.83-.718-2.746-2.155-2.746-.704 0-1.254.232-1.65.697-.43.508-.646 1.256-.646 2.245 0 .972.19 1.686.574 2.14.35.41.877.615 1.583.615.264 0 .506-.033.725-.098l1.325.772.36-.622zM15.5 17.588c-.225-.36-.337-.94-.337-1.736 0-1.393.424-2.09 1.27-2.09.443 0 .77.167.977.5.224.362.336.936.336 1.723 0 1.404-.424 2.108-1.27 2.108-.445 0-.77-.167-.978-.5zm-1.658-.425c0 .47-.172.856-.516 1.156-.344.3-.803.45-1.384.45-.543 0-1.064-.172-1.573-.515l.237-.476c.438.22.833.328 1.19.328.332 0 .593-.073.783-.22a.754.754 0 00.3-.615c0-.33-.23-.61-.648-.845-.388-.213-1.163-.657-1.163-.657-.422-.307-.632-.636-.632-1.177 0-.45.157-.81.47-1.085.315-.278.72-.415 1.22-.415.512 0 .98.136 1.4.41l-.213.476a2.726 2.726 0 00-1.064-.23c-.283 0-.502.068-.654.206a.685.685 0 00-.248.524c0 .328.234.61.666.85.393.215 1.187.67 1.187.67.433.305.648.63.648 1.168zm9.382-5.852c-.535-.014-.95.04-1.297.188-.1.04-.26.04-.274.167.055.053.063.14.11.214.08.134.218.313.346.407.14.11.28.216.427.31.26.16.555.255.81.416.145.094.293.213.44.313.073.05.12.14.214.172v-.02c-.046-.06-.06-.147-.105-.214-.067-.067-.134-.127-.2-.193a3.223 3.223 0 00-.695-.675c-.214-.146-.682-.35-.77-.595l-.013-.014c.146-.013.32-.066.46-.106.227-.06.435-.047.67-.106.106-.027.213-.06.32-.094v-.06c-.12-.12-.21-.283-.334-.395a8.867 8.867 0 00-1.104-.823c-.21-.134-.476-.22-.697-.334-.08-.04-.214-.06-.26-.127-.12-.146-.19-.34-.275-.514a17.69 17.69 0 01-.547-1.163c-.12-.262-.193-.523-.34-.763-.69-1.137-1.437-1.826-2.586-2.5-.247-.14-.543-.2-.856-.274-.167-.008-.334-.02-.5-.027-.11-.047-.216-.174-.31-.235-.38-.24-1.364-.76-1.644-.072-.18.434.267.862.422 1.082.115.153.26.328.34.5.047.116.06.235.107.356.106.294.207.622.347.897.073.14.153.287.247.413.054.073.146.107.167.227-.094.136-.1.334-.154.5-.24.757-.146 1.693.194 2.25.107.166.362.534.703.393.3-.12.234-.5.32-.835.02-.08.007-.133.048-.187v.015c.094.188.188.367.274.555.206.328.566.668.867.895.16.12.287.328.487.402v-.02h-.015c-.043-.058-.1-.086-.154-.133a3.445 3.445 0 01-.35-.4 8.76 8.76 0 01-.747-1.218c-.11-.21-.202-.436-.29-.643-.04-.08-.04-.2-.107-.24-.1.146-.247.273-.32.453-.127.288-.14.642-.188 1.01-.027.007-.014 0-.027.014-.214-.052-.287-.274-.367-.46-.2-.475-.233-1.238-.06-1.785.047-.14.247-.582.167-.716-.042-.127-.174-.2-.247-.303a2.478 2.478 0 01-.24-.427c-.16-.374-.24-.788-.414-1.162-.08-.173-.22-.354-.334-.513-.127-.18-.267-.307-.368-.52-.033-.073-.08-.194-.027-.274.014-.054.042-.075.094-.09.088-.072.335.022.422.062.247.1.455.194.662.334.094.066.195.193.315.226h.14c.214.047.455.014.655.073.355.114.675.28.962.46a5.953 5.953 0 012.085 2.286c.08.154.115.295.188.455.14.33.313.663.455.982.14.315.275.636.476.897.1.14.502.213.682.286.133.06.34.115.46.188.23.14.454.3.67.454.11.076.443.243.463.378z"/>
      </g>
      
      <!-- Permanently visible label underneath the icon for high visibility -->
      <text x="370" y="386" font-family="Arial, sans-serif" font-size="7" font-weight="700" fill="#ffffff" text-anchor="middle">MYSQL</text>
    </g>
    <!-- Icon: microsoftsqlserver -->
    <g class="float-3" style="animation-delay: 1.4000000000000001s;">
      <!-- Glowing circle border around icon -->
      <circle cx="414" cy="360" r="17" fill="#060c14" stroke="#1c2535" stroke-width="1" />
      <circle cx="414" cy="360" r="17" fill="none" stroke="#CC2927" stroke-width="1.2" opacity="0.35" class="glow-ring" />
      
      <!-- Icon path -->
      <g transform="translate(402, 348) scale(1)" fill="#CC2927">
        <path d="M4.724 2.505s-.08.127-.004.315c.046.116.186.256.34.404 0 0 1.615 1.576 1.813 1.804.895 1.033 1.284 2.05 1.32 3.453.022.9-.151 1.692-.573 2.613-.756 1.649-2.35 3.468-4.81 5.49l.36-.12c.233-.173.548-.359 1.292-.766 1.713-.936 3.636-1.798 5.999-2.686 3.399-1.277 8.99-2.776 12.172-3.263l.331-.051-.05-.08c-.292-.452-.49-.731-.73-1.027-.697-.863-1.542-1.567-2.577-2.146-1.422-.797-3.267-1.416-5.6-1.88a67.93 67.93 0 00-2.191-.375 209.29 209.29 0 01-3.924-.64c-.425-.075-1.06-.181-1.481-.272a9.404 9.404 0 01-.961-.258c-.268-.105-.645-.207-.726-.515zm.936.909c.003-.002.063.017.137.042.136.046.316.1.526.159.146.04.307.084.479.127.218.056.399.104.401.107.024.027.391 1.198.516 1.647.048.172.084.315.081.318a.789.789 0 01-.09-.14c-.424-.746-1.097-1.505-1.874-2.116a3.104 3.104 0 01-.176-.144zm1.79.494c.018-.001.099.012.195.034.619.136 1.725.35 2.435.47.119.02.216.04.216.047a.348.348 0 01-.098.062c-.119.06-.602.349-.763.457-.403.27-.766.559-1.03.821a5.4 5.4 0 01-.197.192c-.003 0-.022-.062-.041-.137a12.09 12.09 0 00-.65-1.779 1.801 1.801 0 01-.071-.165c0-.001 0-.002.004-.002zm3.147.598c.02.007.06.13.129.404a6.05 6.05 0 01.153 1.977l-.012.038-.187-.06c-.388-.124-1.02-.31-1.562-.46a6.625 6.625 0 01-.56-.17c0-.022.449-.471.642-.642.369-.326 1.362-1.098 1.397-1.087zm.25.036c.011-.01 1.504.248 2.182.378.506.097 1.237.25 1.281.269.022.008-.054.05-.297.16-.96.432-1.672.82-2.38 1.293-.186.124-.341.226-.344.226-.004 0-.006-.104-.006-.23 0-.69-.139-1.387-.391-1.976a.688.688 0 01-.045-.12zm3.86.764c.011.011-.038.306-.08.48-.132.54-.482 1.344-.914 2.099a2.26 2.26 0 01-.152.246 1.499 1.499 0 01-.219-.115c-.422-.247-.9-.48-1.425-.697a4.588 4.588 0 01-.278-.12c-.024-.022 1.143-.795 1.762-1.166.495-.297 1.292-.741 1.306-.727zm.276.043c.033 0 .695.18 1.037.283.853.255 1.837.614 2.475.904l.265.12-.187.043c-1.561.36-2.9.773-4.188 1.296-.107.044-.2.08-.207.08a.911.911 0 01.075-.185c.388-.823.638-1.687.703-2.42.006-.067.018-.121.027-.121zm-6.58 1.512c.01-.01.514.108.789.185.413.116 1.292.41 1.292.433 0 .004-.097.089-.215.188-.475.397-.934.813-1.483 1.343a5.27 5.27 0 01-.308.285c-.007 0-.01-.023-.006-.05.083-.611.065-1.395-.05-2.193a1.29 1.29 0 01-.02-.19zm10.61.01c.007.008-.234.385-.384.6-.22.314-.537.726-1.261 1.637l-.954 1.202a9.418 9.418 0 01-.269.333c-.003 0-.05-.066-.103-.146a7.584 7.584 0 00-1.47-1.625 9.59 9.59 0 00-.27-.218.427.427 0 01-.074-.063c0-.01.617-.274 1.088-.466a37.02 37.02 0 012.778-.99c.442-.135.912-.27.919-.264zm.278.073a.93.93 0 01.207.1 12.274 12.274 0 012.428 1.824c.194.19.667.683.66.687l-.363.029c-1.53.115-3.486.44-5.37.893-.128.03-.238.056-.246.056-.007 0 .133-.14.311-.312 1.107-1.063 1.611-1.734 2.205-2.934.088-.178.163-.333.166-.342h.002zm-8.088.83c.051.01.523.23.879.408.325.163.818.426.843.449.003.003-.17.093-.386.201-.683.342-1.268.664-1.878 1.037-.175.107-.32.194-.325.194-.015 0-.01-.013.088-.191a7.702 7.702 0 00.738-2.002c.014-.062.03-.1.041-.097zm-.475.084c.01.01-.112.46-.19.7a9.092 9.092 0 01-.835 1.808l-.09.147-.203-.197a2.671 2.671 0 00-.676-.5 1.009 1.009 0 01-.176-.102c0-.03.62-.593 1.098-.998.343-.29 1.064-.867 1.072-.858zm2.888 1.188l.177.115c.407.264.888.619 1.255.924.206.172.605.53.687.616l.044.047-.294.082a53.8 53.8 0 00-4.45 1.424c-.167.061-.31.112-.32.112-.021 0-.042.019.333-.326.96-.883 1.807-1.856 2.44-2.802zm-.759.19c.009.009-.492.71-.789 1.106-.356.473-.99 1.265-1.426 1.78a8.769 8.769 0 01-.346.397c-.01.003-.015-.05-.016-.133 0-.44-.112-.91-.308-1.308-.083-.168-.097-.208-.08-.224.068-.062 1.127-.666 1.794-1.023.459-.246 1.163-.604 1.171-.595zm-4.59 1.125a3.988 3.988 0 01.812.518c.008.005-.087.083-.21.172-.345.249-.87.644-1.173.886-.32.255-.331.263-.295.207.24-.367.36-.574.486-.84.113-.236.224-.516.304-.76a.675.675 0 01.077-.183zm1.223.96c.017-.003.04.028.139.175.207.31.366.722.407 1.058l.008.073-.497.192c-.89.346-1.711.687-2.266.94-.155.072-.428.202-.607.292-.179.09-.325.16-.325.156 0-.004.112-.089.25-.188 1.087-.79 2.025-1.654 2.732-2.519.075-.092.144-.172.153-.178a.016.016 0 01.006-.002zm-.564.14c.015.014-.401.484-.681.77-.7.715-1.396 1.275-2.256 1.821-.108.069-.206.13-.22.138-.023.014.008-.022.386-.434.238-.259.42-.474.628-.743.136-.177.162-.202.362-.346.537-.388 1.767-1.221 1.781-1.207zM9.925 0c-.08-.01-1.371.455-2.2.791-1.123.457-1.996.894-2.534 1.272-.2.14-.452.393-.488.49a.356.356 0 00-.021.123l.488.46 1.158.37L9.087 4l3.153.542.032-.27-.028-.005-.415-.066-.085-.148a27.702 27.702 0 01-1.177-2.325 12.264 12.264 0 01-.53-1.465C9.969.02 9.962.005 9.925 0zm-.061.186h.005c.003.003.017.105.032.225.062.508.176 1 .354 1.53.134.4.136.377-.024.332-.37-.103-2.032-.388-3.234-.555a8.796 8.796 0 01-.357-.053c-.015-.015.867-.477 1.258-.66.501-.232 1.867-.8 1.966-.819zM6.362 1.814l.141.048c.772.262 2.706.632 3.775.72.12.01.222.021.225.024.003.003-.1.058-.228.122-.515.258-1.083.573-1.476.819-.115.072-.22.13-.235.129a4.868 4.868 0 01-.17-.027l-.144-.023-.365-.355c-.641-.62-1.141-1.1-1.335-1.28zm-.143.114l.511.638c.282.35.564.699.626.774.063.075.111.138.108.14-.014.011-.74-.13-1.125-.219a8.532 8.532 0 01-.803-.212l-.2-.064.001-.049c.003-.245.312-.607.836-.976zm4.352.869c.015.001.032.032.077.131.124.272.51 1.008.603 1.15.03.047.08.05-.433-.033-1.23-.198-1.629-.265-1.629-.273a.36.36 0 01.083-.054 7.13 7.13 0 001.107-.767l.175-.147c.006-.005.012-.008.017-.007zm4.309 8.408l-4.808 1.568-4.18 1.846-1.17.31c-.298.282-.613.568-.948.86-.37.321-.716.612-.98.822a7.46 7.46 0 00-.953.945c-.332.414-.592.854-.704 1.193-.2.61-.103 1.228.285 1.798.495.728 1.48 1.468 2.625 1.972.585.256 1.57.588 2.31.774 1.233.312 3.614.65 4.926.7.266.01.62.01.637-.002.028-.019.233-.405.47-.89.806-1.646 1.389-3.19 1.703-4.508.19-.799.338-1.863.434-3.125.027-.354.037-1.533.016-1.934a13.564 13.564 0 00-.183-1.706.435.435 0 01-.012-.15c.014-.01.059-.025.65-.197zm-1.1.645c.045 0 .16 1.114.191 1.82.006.151.005.247-.004.247-.028 0-.615-.345-1.032-.606a28.716 28.716 0 01-1.162-.772c-.035-.028-.031-.029.266-.131.505-.174 1.704-.558 1.742-.558zm-2.448.803c.03 0 .115.047.315.172.75.47 1.766 1.035 2.2 1.225.136.06.151.036-.16.247-.662.45-1.486.892-2.497 1.342a7.59 7.59 0 01-.331.142.989.989 0 01.043-.2c.245-.905.383-1.82.387-2.554.002-.362.002-.364.037-.373h.006zm-.504.193c.021.022.006.834-.02 1.056a9.206 9.206 0 01-.418 1.837c-.014.017-.511-.468-.676-.66a4.918 4.918 0 01-.669-.973c-.082-.162-.214-.484-.202-.493.056-.04 1.971-.78 1.985-.767zm-2.375.936c.004 0 .008.001.01.004a.881.881 0 01.056.131c.116.315.376.782.602 1.08a6.247 6.247 0 001.017 1.06c.023.02.03.016-.562.24a48.53 48.53 0 01-2.294.8c-.327.106-.604.195-.615.2-.033.011-.023-.009.073-.158.427-.666 1.073-1.97 1.435-2.892.062-.16.122-.32.133-.356.015-.052.031-.07.08-.092a.149.149 0 01.065-.017zm-.728.3c.01.009-.174.398-.356.751-.351.686-.739 1.361-1.253 2.185l-.182.288c-.018.027-.026.018-.082-.094a3.307 3.307 0 01-.28-.842 3.39 3.39 0 01.02-1.083c.047-.227.045-.222.152-.276.462-.237 1.966-.942 1.981-.929zm6.268.255v.154a20.106 20.106 0 01-.255 2.992 9.362 9.362 0 01-1.898-.782c-.354-.194-.865-.507-.85-.522.003-.004.154-.083.334-.177.714-.37 1.395-.77 1.988-1.166.222-.148.555-.389.629-.454zM4.981 15.41c.015 0 .011.028-.012.161a4.137 4.137 0 00-.041.39c-.03.532.057.924.32 1.46.074.15.132.274.129.276-.027.023-2.43.726-3.186.933l-.435.12c-.027.008-.029.002-.02-.06.083-.533.49-1.232 1.058-1.82.378-.39.68-.622 1.195-.915a30.782 30.782 0 01.992-.545zm5.669 1.015c.002-.002.091.045.197.107.777.449 1.86.87 2.783 1.081l.084.02-.115.063c-.482.268-2.071.929-3.694 1.537a68.82 68.82 0 00-.513.194.314.314 0 01-.082.027c0-.004.067-.132.149-.286.456-.852.91-1.887 1.144-2.605.023-.073.044-.135.047-.138zm-.578.19a1.39 1.39 0 01-.063.169 23.534 23.534 0 01-1.261 2.54 9.009 9.009 0 01-.252.433c-.005 0-.114-.066-.244-.145-.77-.472-1.452-1.052-1.9-1.617l-.064-.08.332-.091a23.616 23.616 0 003.19-1.103c.142-.06.26-.109.262-.106zm3.59 1.253c.001 0 .002.001.002.003 0 .08-.183.828-.336 1.37-.128.453-.236.808-.435 1.437a8.533 8.533 0 01-.168.504 15.004 15.004 0 01-3-.841 7.964 7.964 0 01-.639-.283c-.006-.007.213-.11.486-.23 1.655-.721 3.369-1.543 3.955-1.896a.432.432 0 01.135-.064zm-8.287.283c.009.009-.454.671-1.1 1.576l-.587.823c-.097.139-.245.358-.329.488l-.153.236-.162-.137c-.191-.16-.525-.501-.677-.69-.312-.389-.523-.798-.607-1.174-.038-.174-.04-.262-.003-.273a176.26 176.26 0 011.934-.455l1.3-.305c.209-.05.382-.09.384-.089zm.465.178l.117.131a6.763 6.763 0 001.706 1.394c.115.066.202.124.195.128a281.967 281.967 0 01-4.33 1.53.858.858 0 01-.072-.048l-.067-.048.105-.152c.34-.493.768-1.035 1.705-2.162zm2.9 2.073c.003-.003.165.054.362.128.473.177.844.292 1.347.418.617.155 1.51.31 2.038.354.08.006.122.016.11.024-.025.016-.56.194-.953.318a258.526 258.526 0 01-4.636 1.363c-.035.007-.157-.025-.157-.04 0-.009.087-.119.193-.246a22.027 22.027 0 001.476-1.984 56.9 56.9 0 01.22-.335zm-.642.018c.005.005-.253.418-.706 1.132-.192.301-.409.645-.483.762-.075.118-.184.298-.242.4l-.107.185-.054-.014c-.13-.035-1.049-.36-1.291-.456-.301-.12-.615-.264-.846-.389-.289-.156-.655-.388-.627-.397l1.105-.302c1.592-.434 2.473-.683 3.05-.864.109-.033.199-.059.2-.057zm4.523 1.061h.006c.015.038-.575 1.67-.79 2.188-.049.116-.066.145-.092.143a55.54 55.54 0 01-1.433-.2c-.906-.138-2.423-.403-2.806-.49l-.089-.02.543-.122c1.164-.262 1.723-.403 2.29-.577a16.544 16.544 0 002.138-.824c.113-.052.21-.093.233-.098Z"/>
      </g>
      
      <!-- Permanently visible label underneath the icon for high visibility -->
      <text x="414" y="386" font-family="Arial, sans-serif" font-size="7" font-weight="700" fill="#ffffff" text-anchor="middle">SQL SERVER</text>
    </g>
    <!-- Icon: firebase -->
    <g class="float-4" style="animation-delay: 1.5s;">
      <!-- Glowing circle border around icon -->
      <circle cx="458" cy="360" r="17" fill="#060c14" stroke="#1c2535" stroke-width="1" />
      <circle cx="458" cy="360" r="17" fill="none" stroke="#FFCA28" stroke-width="1.2" opacity="0.35" class="glow-ring" />
      
      <!-- Icon path -->
      <g transform="translate(446, 348) scale(1)" fill="#FFCA28">
        <path d="M19.455 8.369c-.538-.748-1.778-2.285-3.681-4.569-.826-.991-1.535-1.832-1.884-2.245a146 146 0 0 0-.488-.576l-.207-.245-.113-.133-.022-.032-.01-.005L12.57 0l-.609.488c-1.555 1.246-2.828 2.851-3.681 4.64-.523 1.064-.864 2.105-1.043 3.176-.047.241-.088.489-.121.738-.209-.017-.421-.028-.632-.033-.018-.001-.035-.002-.059-.003a7.46 7.46 0 0 0-2.28.274l-.317.089-.163.286c-.765 1.342-1.198 2.869-1.252 4.416-.07 2.01.477 3.954 1.583 5.625 1.082 1.633 2.61 2.882 4.42 3.611l.236.095.071.025.003-.001a9.59 9.59 0 0 0 2.941.568q.171.006.342.006c1.273 0 2.513-.249 3.69-.742l.008.004.313-.145a9.63 9.63 0 0 0 3.927-3.335c1.01-1.49 1.577-3.234 1.641-5.042.075-2.161-.643-4.304-2.133-6.371m-7.083 6.695c.328 1.244.264 2.44-.191 3.558-1.135-1.12-1.967-2.352-2.475-3.665-.543-1.404-.87-2.74-.974-3.975.48.157.922.366 1.315.622 1.132.737 1.914 1.902 2.325 3.461zm.207 6.022c.482.368.99.712 1.513 1.028-.771.21-1.565.302-2.369.273a8 8 0 0 1-.373-.022c.458-.394.869-.823 1.228-1.279zm1.347-6.431c-.516-1.957-1.527-3.437-3.002-4.398-.647-.421-1.385-.741-2.194-.95.011-.134.026-.268.043-.4.014-.113.03-.216.046-.313.133-.689.332-1.37.589-2.025.099-.25.206-.499.321-.74l.004-.008c.177-.358.376-.719.61-1.105l.092-.152-.003-.001c.544-.851 1.197-1.627 1.942-2.311l.288.341c.672.796 1.304 1.548 1.878 2.237 1.291 1.549 2.966 3.583 3.612 4.48 1.277 1.771 1.893 3.579 1.83 5.375-.049 1.395-.461 2.755-1.195 3.933-.694 1.116-1.661 2.05-2.8 2.708-.636-.318-1.559-.839-2.539-1.599.79-1.575.952-3.28.479-5.072zm-2.575 5.397c-.725.939-1.587 1.55-2.09 1.856-.081-.029-.163-.06-.243-.093l-.065-.026c-1.49-.616-2.747-1.656-3.635-3.01-.907-1.384-1.356-2.993-1.298-4.653.041-1.19.338-2.327.882-3.379.316-.07.638-.114.96-.131l.084-.002c.162-.003.324-.003.478 0 .227.011.454.035.677.07.073 1.513.445 3.145 1.105 4.852.637 1.644 1.694 3.162 3.144 4.515z"/>
      </g>
      
      <!-- Permanently visible label underneath the icon for high visibility -->
      <text x="458" y="386" font-family="Arial, sans-serif" font-size="7" font-weight="700" fill="#ffffff" text-anchor="middle">FIREBASE</text>
    </g>
    <!-- Icon: tailwindcss -->
    <g class="float-1" style="animation-delay: 1.6s;">
      <!-- Glowing circle border around icon -->
      <circle cx="502" cy="360" r="17" fill="#060c14" stroke="#1c2535" stroke-width="1" />
      <circle cx="502" cy="360" r="17" fill="none" stroke="#06B6D4" stroke-width="1.2" opacity="0.35" class="glow-ring" />
      
      <!-- Icon path -->
      <g transform="translate(490, 348) scale(1)" fill="#06B6D4">
        <path d="M12.001,4.8c-3.2,0-5.2,1.6-6,4.8c1.2-1.6,2.6-2.2,4.2-1.8c0.913,0.228,1.565,0.89,2.288,1.624 C13.666,10.618,15.027,12,18.001,12c3.2,0,5.2-1.6,6-4.8c-1.2,1.6-2.6,2.2-4.2,1.8c-0.913-0.228-1.565-0.89-2.288-1.624 C16.337,6.182,14.976,4.8,12.001,4.8z M6.001,12c-3.2,0-5.2,1.6-6,4.8c1.2-1.6,2.6-2.2,4.2-1.8c0.913,0.228,1.565,0.89,2.288,1.624 c1.177,1.194,2.538,2.576,5.512,2.576c3.2,0,5.2-1.6,6-4.8c-1.2,1.6-2.6,2.2-4.2,1.8c-0.913-0.228-1.565-0.89-2.288-1.624 C10.337,13.382,8.976,12,6.001,12z"/>
      </g>
      
      <!-- Permanently visible label underneath the icon for high visibility -->
      <text x="502" y="386" font-family="Arial, sans-serif" font-size="7" font-weight="700" fill="#ffffff" text-anchor="middle">TAILWIND CSS</text>
    </g>
    <!-- Icon: bootstrap -->
    <g class="float-2" style="animation-delay: 1.7000000000000002s;">
      <!-- Glowing circle border around icon -->
      <circle cx="546" cy="360" r="17" fill="#060c14" stroke="#1c2535" stroke-width="1" />
      <circle cx="546" cy="360" r="17" fill="none" stroke="#7952B3" stroke-width="1.2" opacity="0.35" class="glow-ring" />
      
      <!-- Icon path -->
      <g transform="translate(534, 348) scale(1)" fill="#7952B3">
        <path d="M11.77 11.24H9.956V8.202h2.152c1.17 0 1.834.522 1.834 1.466 0 1.008-.773 1.572-2.174 1.572zm.324 1.206H9.957v3.348h2.231c1.459 0 2.232-.585 2.232-1.685s-.795-1.663-2.326-1.663zM24 11.39v1.218c-1.128.108-1.817.944-2.226 2.268-.407 1.319-.463 2.937-.42 4.186.045 1.3-.968 2.5-2.337 2.5H4.985c-1.37 0-2.383-1.2-2.337-2.5.043-1.249-.013-2.867-.42-4.186-.41-1.324-1.1-2.16-2.228-2.268V11.39c1.128-.108 1.819-.944 2.227-2.268.408-1.319.464-2.937.42-4.186-.045-1.3.968-2.5 2.338-2.5h14.032c1.37 0 2.382 1.2 2.337 2.5-.043 1.249.013 2.867.42 4.186.409 1.324 1.098 2.16 2.226 2.268zm-7.927 2.817c0-1.354-.953-2.333-2.368-2.488v-.057c1.04-.169 1.856-1.135 1.856-2.213 0-1.537-1.213-2.538-3.062-2.538h-4.16v10.172h4.181c2.218 0 3.553-1.086 3.553-2.876z"/>
      </g>
      
      <!-- Permanently visible label underneath the icon for high visibility -->
      <text x="546" y="386" font-family="Arial, sans-serif" font-size="7" font-weight="700" fill="#ffffff" text-anchor="middle">BOOTSTRAP</text>
    </g>
    <!-- Icon: mui -->
    <g class="float-3" style="animation-delay: 1.8s;">
      <!-- Glowing circle border around icon -->
      <circle cx="590" cy="360" r="17" fill="#060c14" stroke="#1c2535" stroke-width="1" />
      <circle cx="590" cy="360" r="17" fill="none" stroke="#007FFF" stroke-width="1.2" opacity="0.35" class="glow-ring" />
      
      <!-- Icon path -->
      <g transform="translate(578, 348) scale(1)" fill="#007FFF">
        <path d="M20.229 15.793a.666.666 0 0 0 .244-.243.666.666 0 0 0 .09-.333l.012-3.858a.666.666 0 0 1 .09-.333.666.666 0 0 1 .245-.243L23 9.58a.667.667 0 0 1 .333-.088.667.667 0 0 1 .333.09.667.667 0 0 1 .244.243.666.666 0 0 1 .089.333v7.014a.667.667 0 0 1-.335.578l-7.893 4.534a.666.666 0 0 1-.662 0l-6.194-3.542a.667.667 0 0 1-.246-.244.667.667 0 0 1-.09-.335v-3.537c0-.004.004-.006.008-.004s.008 0 .008-.005v-.004c0-.003.002-.005.004-.007l5.102-2.93c.004-.003.002-.01-.003-.01a.005.005 0 0 1-.004-.002.005.005 0 0 1-.001-.004l.01-3.467a.667.667 0 0 0-.333-.58.667.667 0 0 0-.667 0L8.912 9.799a.667.667 0 0 1-.665 0l-3.804-2.19a.667.667 0 0 0-.999.577v6.267a.667.667 0 0 1-.332.577.666.666 0 0 1-.332.09.667.667 0 0 1-.333-.088L.336 13.825a.667.667 0 0 1-.246-.244.667.667 0 0 1-.09-.336L.019 2.292a.667.667 0 0 1 .998-.577l7.23 4.153a.667.667 0 0 0 .665 0l7.228-4.153a.666.666 0 0 1 .333-.088.666.666 0 0 1 .333.09.667.667 0 0 1 .244.244.667.667 0 0 1 .088.333V13.25c0 .117-.03.232-.089.334a.667.667 0 0 1-.245.244l-3.785 2.18a.667.667 0 0 0-.245.245.666.666 0 0 0-.089.334.667.667 0 0 0 .09.334.666.666 0 0 0 .247.244l2.088 1.189a.67.67 0 0 0 .33.087.667.667 0 0 0 .332-.089l4.457-2.56Zm.438-9.828a.666.666 0 0 0 .09.335.666.666 0 0 0 .248.244.667.667 0 0 0 .67-.008l2.001-1.2a.666.666 0 0 0 .237-.243.667.667 0 0 0 .087-.329V2.32a.667.667 0 0 0-.091-.335.667.667 0 0 0-.584-.33.667.667 0 0 0-.334.094l-2 1.2a.666.666 0 0 0-.238.243.668.668 0 0 0-.086.329v2.445Z"/>
      </g>
      
      <!-- Permanently visible label underneath the icon for high visibility -->
      <text x="590" y="386" font-family="Arial, sans-serif" font-size="7" font-weight="700" fill="#ffffff" text-anchor="middle">MUI</text>
    </g>
    <!-- Icon: antdesign -->
    <g class="float-4" style="animation-delay: 1.9000000000000001s;">
      <!-- Glowing circle border around icon -->
      <circle cx="634" cy="360" r="17" fill="#060c14" stroke="#1c2535" stroke-width="1" />
      <circle cx="634" cy="360" r="17" fill="none" stroke="#0170FE" stroke-width="1.2" opacity="0.35" class="glow-ring" />
      
      <!-- Icon path -->
      <g transform="translate(622, 348) scale(1)" fill="#0170FE">
        <path d="M17.4511 6.6808c.5091-.5064.5091-1.3316 0-1.838l-1.8729-1.873.0027.0027c-.4957-.4957-1.3478-1.3478-2.5535-2.5508-.568-.5547-1.487-.5493-2.0498.0134L.426 10.9787a1.4426 1.4426 0 0 0 0 2.047l10.549 10.541a1.4506 1.4506 0 0 0 2.0497 0l4.4238-4.4211c.509-.5064.509-1.3317 0-1.8381a1.3049 1.3049 0 0 0-1.8408 0l-3.3493 3.3546c-.1393.1394-.3564.1394-.4957 0l-8.4268-8.4188c-.1394-.1393-.1394-.3563 0-.4956L11.76 3.3289c.0107-.0108.0241-.0188.0349-.0295.1393-.1099.3322-.0992.4608.0295l3.3547 3.352c.509.509 1.3343.509 1.8407 0zm-8.2446 5.375a2.8482 2.8456 0 1 0 5.6965 0 2.8482 2.8456 0 1 0-5.6965 0zm14.3672-1.0343l-3.293-3.277c-.5092-.5063-1.3344-.5063-1.8408.0028a1.2968 1.2968 0 0 0 0 1.838l2.2239 2.2213c.1393.1393.1393.3564 0 .4957l-2.1918 2.189a1.2968 1.2968 0 0 0 0 1.8382 1.3049 1.3049 0 0 0 1.8408 0l3.2635-3.2609a1.445 1.445 0 0 0-.0026-2.047Z"/>
      </g>
      
      <!-- Permanently visible label underneath the icon for high visibility -->
      <text x="634" y="386" font-family="Arial, sans-serif" font-size="7" font-weight="700" fill="#ffffff" text-anchor="middle">ANT DESIGN</text>
    </g>
    <!-- Icon: jinja -->
    <g class="float-1" style="animation-delay: 2s;">
      <!-- Glowing circle border around icon -->
      <circle cx="678" cy="360" r="17" fill="#060c14" stroke="#1c2535" stroke-width="1" />
      <circle cx="678" cy="360" r="17" fill="none" stroke="#B41717" stroke-width="1.2" opacity="0.35" class="glow-ring" />
      
      <!-- Icon path -->
      <g transform="translate(666, 348) scale(1)" fill="#B41717">
        <path d="M23.613 3.494h-.087C19.268 4.91 13.69 4.91 12.14 4.885l-1.434-.025C6.476 4.705 4.318 3.082.538 1.394c-.261-.116-.565.077-.536.348.029.927.275 4.818 3.186 5.836.102.04.218.077.32.103.144.026.202.142.231.22l.246.76c.044.18.174.334.32.334h.245c.217 0 .391.155.406.348v.735c0 .077-.073.141-.16.141H2.928c-.174 0-.319.13-.319.284v1.147c0 .154.145.283.32.283h1.867c.087 0 .16.064.16.142v.31c0 .076-.073.141-.16.141H2.928c-.174.012-.305.128-.305.283v1.148c0 .129.116.27.247.27h1.94c.088 0 .16.065.16.142v7.537c0 .387.362.709.797.709h1.318c.434 0 .797-.322.797-.71V14.37c0-.077.072-.142.16-.142l8.14-.013c.087 0 .16.065.16.142v7.576c0 .386.362.709.797.709h1.318c.434 0 .796-.323.796-.71v-7.588c0-.077.073-.141.16-.141 0 0 2.028-.013 2.057-.026a.29.29 0 0 0 .144-.245v-1.135c0-.155-.144-.283-.333-.283h-2.013V12.5h-.015v-.425c0-.078.073-.142.16-.142h1.868c.174 0 .319-.129.319-.283v-1.147c0-.155-.145-.284-.32-.284h-1.867c-.087 0-.16-.064-.16-.14v-.736c0-.18.174-.348.406-.348h.246c.174 0 .275-.167.319-.335l.246-.76c.03-.103.13-.193.246-.232 1.869-.412 2.637-1.636 3.274-3.556V4.1c.072-.49-.26-.58-.377-.605zM16.37 8.97v1.12c0 .155-.102.271-.232.271h-2.607c-.13 0-.232-.116-.232-.27v-1.12c0-.143.1-.272.232-.272h2.607a.28.28 0 0 1 .232.27zm-5.375 0v1.12c0 .142-.102.271-.232.271H8.157c-.13 0-.232-.116-.232-.27v-1.12c0-.143.101-.272.232-.272h2.607a.28.28 0 0 1 .232.27z"/>
      </g>
      
      <!-- Permanently visible label underneath the icon for high visibility -->
      <text x="678" y="386" font-family="Arial, sans-serif" font-size="7" font-weight="700" fill="#ffffff" text-anchor="middle">JINJA2</text>
    </g>
    <!-- Icon: git -->
    <g class="float-2" style="animation-delay: 2.1s;">
      <!-- Glowing circle border around icon -->
      <circle cx="210" cy="480" r="17" fill="#060c14" stroke="#1c2535" stroke-width="1" />
      <circle cx="210" cy="480" r="17" fill="none" stroke="#F05032" stroke-width="1.2" opacity="0.35" class="glow-ring" />
      
      <!-- Icon path -->
      <g transform="translate(198, 468) scale(1)" fill="#F05032">
        <path d="M13.09 23.549a1.54 1.54 0 0 1-2.18 0L.451 13.089a1.54 1.54 0 0 1 0-2.179l7.191-7.19 2.733 2.733a1.85 1.85 0 0 0 .964 2.326v6.66a1.849 1.849 0 1 0 1.54 0V8.957l2.508 2.508a1.85 1.85 0 1 0 1.09-1.09l-2.634-2.634a1.85 1.85 0 0 0-2.378-2.377L8.73 2.63 10.91.451a1.54 1.54 0 0 1 2.179 0l10.459 10.46a1.54 1.54 0 0 1 0 2.179z"/>
      </g>
      
      <!-- Permanently visible label underneath the icon for high visibility -->
      <text x="210" y="506" font-family="Arial, sans-serif" font-size="7" font-weight="700" fill="#ffffff" text-anchor="middle">GIT</text>
    </g>
    <!-- Icon: github -->
    <g class="float-3" style="animation-delay: 2.2s;">
      <!-- Glowing circle border around icon -->
      <circle cx="255" cy="480" r="17" fill="#060c14" stroke="#1c2535" stroke-width="1" />
      <circle cx="255" cy="480" r="17" fill="none" stroke="#FFFFFF" stroke-width="1.2" opacity="0.35" class="glow-ring" />
      
      <!-- Icon path -->
      <g transform="translate(243, 468) scale(1)" fill="#FFFFFF">
        <path d="M12 .297c-6.63 0-12 5.373-12 12 0 5.303 3.438 9.8 8.205 11.385.6.113.82-.258.82-.577 0-.285-.01-1.04-.015-2.04-3.338.724-4.042-1.61-4.042-1.61C4.422 18.07 3.633 17.7 3.633 17.7c-1.087-.744.084-.729.084-.729 1.205.084 1.838 1.236 1.838 1.236 1.07 1.835 2.809 1.305 3.495.998.108-.776.417-1.305.76-1.605-2.665-.3-5.466-1.332-5.466-5.93 0-1.31.465-2.38 1.235-3.22-.135-.303-.54-1.523.105-3.176 0 0 1.005-.322 3.3 1.23.96-.267 1.98-.399 3-.405 1.02.006 2.04.138 3 .405 2.28-1.552 3.285-1.23 3.285-1.23.645 1.653.24 2.873.12 3.176.765.84 1.23 1.91 1.23 3.22 0 4.61-2.805 5.625-5.475 5.92.42.36.81 1.096.81 2.22 0 1.606-.015 2.896-.015 3.286 0 .315.21.69.825.57C20.565 22.092 24 17.592 24 12.297c0-6.627-5.373-12-12-12"/>
      </g>
      
      <!-- Permanently visible label underneath the icon for high visibility -->
      <text x="255" y="506" font-family="Arial, sans-serif" font-size="7" font-weight="700" fill="#ffffff" text-anchor="middle">GITHUB</text>
    </g>
    <!-- Icon: docker -->
    <g class="float-4" style="animation-delay: 2.3000000000000003s;">
      <!-- Glowing circle border around icon -->
      <circle cx="300" cy="480" r="17" fill="#060c14" stroke="#1c2535" stroke-width="1" />
      <circle cx="300" cy="480" r="17" fill="none" stroke="#2496ED" stroke-width="1.2" opacity="0.35" class="glow-ring" />
      
      <!-- Icon path -->
      <g transform="translate(288, 468) scale(1)" fill="#2496ED">
        <path d="M13.983 11.078h2.119a.186.186 0 00.186-.185V9.006a.186.186 0 00-.186-.186h-2.119a.185.185 0 00-.185.185v1.888c0 .102.083.185.185.185m-2.954-5.43h2.118a.186.186 0 00.186-.186V3.574a.186.186 0 00-.186-.185h-2.118a.185.185 0 00-.185.185v1.888c0 .102.082.185.185.185m0 2.716h2.118a.187.187 0 00.186-.186V6.29a.186.186 0 00-.186-.185h-2.118a.185.185 0 00-.185.185v1.887c0 .102.082.185.185.186m-2.93 0h2.12a.186.186 0 00.184-.186V6.29a.185.185 0 00-.185-.185H8.1a.185.185 0 00-.185.185v1.887c0 .102.083.185.185.186m-2.964 0h2.119a.186.186 0 00.185-.186V6.29a.185.185 0 00-.185-.185H5.136a.186.186 0 00-.186.185v1.887c0 .102.084.185.186.186m5.893 2.715h2.118a.186.186 0 00.186-.185V9.006a.186.186 0 00-.186-.186h-2.118a.185.185 0 00-.185.185v1.888c0 .102.082.185.185.185m-2.93 0h2.12a.185.185 0 00.184-.185V9.006a.185.185 0 00-.184-.186h-2.12a.185.185 0 00-.184.185v1.888c0 .102.083.185.185.185m-2.964 0h2.119a.185.185 0 00.185-.185V9.006a.185.185 0 00-.184-.186h-2.12a.186.186 0 00-.186.186v1.887c0 .102.084.185.186.185m-2.92 0h2.12a.185.185 0 00.184-.185V9.006a.185.185 0 00-.184-.186h-2.12a.185.185 0 00-.184.185v1.888c0 .102.082.185.185.185M23.763 9.89c-.065-.051-.672-.51-1.954-.51-.338.001-.676.03-1.01.087-.248-1.7-1.653-2.53-1.716-2.566l-.344-.199-.226.327c-.284.438-.49.922-.612 1.43-.23.97-.09 1.882.403 2.661-.595.332-1.55.413-1.744.42H.751a.751.751 0 00-.75.748 11.376 11.376 0 00.692 4.062c.545 1.428 1.355 2.48 2.41 3.124 1.18.723 3.1 1.137 5.275 1.137.983.003 1.963-.086 2.93-.266a12.248 12.248 0 003.823-1.389c.98-.567 1.86-1.288 2.61-2.136 1.252-1.418 1.998-2.997 2.553-4.4h.221c1.372 0 2.215-.549 2.68-1.009.309-.293.55-.65.707-1.046l.098-.288Z"/>
      </g>
      
      <!-- Permanently visible label underneath the icon for high visibility -->
      <text x="300" y="506" font-family="Arial, sans-serif" font-size="7" font-weight="700" fill="#ffffff" text-anchor="middle">DOCKER</text>
    </g>
    <!-- Icon: vercel -->
    <g class="float-1" style="animation-delay: 2.4000000000000004s;">
      <!-- Glowing circle border around icon -->
      <circle cx="345" cy="480" r="17" fill="#060c14" stroke="#1c2535" stroke-width="1" />
      <circle cx="345" cy="480" r="17" fill="none" stroke="#FFFFFF" stroke-width="1.2" opacity="0.35" class="glow-ring" />
      
      <!-- Icon path -->
      <g transform="translate(333, 468) scale(1)" fill="#FFFFFF">
        <path d="m12 1.608 12 20.784H0Z"/>
      </g>
      
      <!-- Permanently visible label underneath the icon for high visibility -->
      <text x="345" y="506" font-family="Arial, sans-serif" font-size="7" font-weight="700" fill="#ffffff" text-anchor="middle">VERCEL</text>
    </g>
    <!-- Icon: railway -->
    <g class="float-2" style="animation-delay: 2.5s;">
      <!-- Glowing circle border around icon -->
      <circle cx="390" cy="480" r="17" fill="#060c14" stroke="#1c2535" stroke-width="1" />
      <circle cx="390" cy="480" r="17" fill="none" stroke="#FFFFFF" stroke-width="1.2" opacity="0.35" class="glow-ring" />
      
      <!-- Icon path -->
      <g transform="translate(378, 468) scale(1)" fill="#FFFFFF">
        <path d="M.113 10.27A13.026 13.026 0 000 11.48h18.23c-.064-.125-.15-.237-.235-.347-3.117-4.027-4.793-3.677-7.19-3.78-.8-.034-1.34-.048-4.524-.048-1.704 0-3.555.005-5.358.01-.234.63-.459 1.24-.567 1.737h9.342v1.216H.113v.002zm18.26 2.426H.009c.02.326.05.645.094.961h16.955c.754 0 1.179-.429 1.315-.96zm-17.318 4.28s2.81 6.902 10.93 7.024c4.855 0 9.027-2.883 10.92-7.024H1.056zM11.988 0C7.5 0 3.593 2.466 1.531 6.108l4.75-.005v-.002c3.71 0 3.849.016 4.573.047l.448.016c1.563.052 3.485.22 4.996 1.364.82.621 2.007 1.99 2.712 2.965.654.902.842 1.94.396 2.934-.408.914-1.289 1.458-2.353 1.458H.391s.099.42.249.886h22.748A12.026 12.026 0 0024 12.005C24 5.377 18.621 0 11.988 0z"/>
      </g>
      
      <!-- Permanently visible label underneath the icon for high visibility -->
      <text x="390" y="506" font-family="Arial, sans-serif" font-size="7" font-weight="700" fill="#ffffff" text-anchor="middle">RAILWAY</text>
    </g>
    <!-- Icon: render -->
    <g class="float-3" style="animation-delay: 2.6s;">
      <!-- Glowing circle border around icon -->
      <circle cx="435" cy="480" r="17" fill="#060c14" stroke="#1c2535" stroke-width="1" />
      <circle cx="435" cy="480" r="17" fill="none" stroke="#FFFFFF" stroke-width="1.2" opacity="0.35" class="glow-ring" />
      
      <!-- Icon path -->
      <g transform="translate(423, 468) scale(1)" fill="#FFFFFF">
        <path d="M18.263.007c-3.121-.147-5.744 2.109-6.192 5.082-.018.138-.045.272-.067.405-.696 3.703-3.936 6.507-7.827 6.507-1.388 0-2.691-.356-3.825-.979a.2024.2024 0 0 0-.302.178V24H12v-8.999c0-1.656 1.338-3 2.987-3h2.988c3.382 0 6.103-2.817 5.97-6.244-.12-3.084-2.61-5.603-5.682-5.75"/>
      </g>
      
      <!-- Permanently visible label underneath the icon for high visibility -->
      <text x="435" y="506" font-family="Arial, sans-serif" font-size="7" font-weight="700" fill="#ffffff" text-anchor="middle">RENDER</text>
    </g>
    <!-- Icon: figma -->
    <g class="float-4" style="animation-delay: 2.7s;">
      <!-- Glowing circle border around icon -->
      <circle cx="480" cy="480" r="17" fill="#060c14" stroke="#1c2535" stroke-width="1" />
      <circle cx="480" cy="480" r="17" fill="none" stroke="#F24E1E" stroke-width="1.2" opacity="0.35" class="glow-ring" />
      
      <!-- Icon path -->
      <g transform="translate(468, 468) scale(1)" fill="#F24E1E">
        <path d="M15.852 8.981h-4.588V0h4.588c2.476 0 4.49 2.014 4.49 4.49s-2.014 4.491-4.49 4.491zM12.735 7.51h3.117c1.665 0 3.019-1.355 3.019-3.019s-1.355-3.019-3.019-3.019h-3.117V7.51zm0 1.471H8.148c-2.476 0-4.49-2.014-4.49-4.49S5.672 0 8.148 0h4.588v8.981zm-4.587-7.51c-1.665 0-3.019 1.355-3.019 3.019s1.354 3.02 3.019 3.02h3.117V1.471H8.148zm4.587 15.019H8.148c-2.476 0-4.49-2.014-4.49-4.49s2.014-4.49 4.49-4.49h4.588v8.98zM8.148 8.981c-1.665 0-3.019 1.355-3.019 3.019s1.355 3.019 3.019 3.019h3.117V8.981H8.148zM8.172 24c-2.489 0-4.515-2.014-4.515-4.49s2.014-4.49 4.49-4.49h4.588v4.441c0 2.503-2.047 4.539-4.563 4.539zm-.024-7.51a3.023 3.023 0 0 0-3.019 3.019c0 1.665 1.365 3.019 3.044 3.019 1.705 0 3.093-1.376 3.093-3.068v-2.97H8.148zm7.704 0h-.098c-2.476 0-4.49-2.014-4.49-4.49s2.014-4.49 4.49-4.49h.098c2.476 0 4.49 2.014 4.49 4.49s-2.014 4.49-4.49 4.49zm-.097-7.509c-1.665 0-3.019 1.355-3.019 3.019s1.355 3.019 3.019 3.019h.098c1.665 0 3.019-1.355 3.019-3.019s-1.355-3.019-3.019-3.019h-.098z"/>
      </g>
      
      <!-- Permanently visible label underneath the icon for high visibility -->
      <text x="480" y="506" font-family="Arial, sans-serif" font-size="7" font-weight="700" fill="#ffffff" text-anchor="middle">FIGMA</text>
    </g>
    <!-- Icon: n8n -->
    <g class="float-1" style="animation-delay: 2.8000000000000003s;">
      <!-- Glowing circle border around icon -->
      <circle cx="525" cy="480" r="17" fill="#060c14" stroke="#1c2535" stroke-width="1" />
      <circle cx="525" cy="480" r="17" fill="none" stroke="#FF6C37" stroke-width="1.2" opacity="0.35" class="glow-ring" />
      
      <!-- Icon path -->
      <g transform="translate(513, 468) scale(1)" fill="#FF6C37">
        <path d="M21.4737 5.6842c-1.1772 0-2.1663.8051-2.4468 1.8947h-2.8955c-1.235 0-2.289.893-2.492 2.111l-.1038.623a1.263 1.263 0 0 1-1.246 1.0555H11.289c-.2805-1.0896-1.2696-1.8947-2.4468-1.8947s-2.1663.8051-2.4467 1.8947H4.973c-.2805-1.0896-1.2696-1.8947-2.4468-1.8947C1.1311 9.4737 0 10.6047 0 12s1.131 2.5263 2.5263 2.5263c1.1772 0 2.1663-.8051 2.4468-1.8947h1.4223c.2804 1.0896 1.2696 1.8947 2.4467 1.8947 1.1772 0 2.1663-.8051 2.4468-1.8947h1.0008a1.263 1.263 0 0 1 1.2459 1.0555l.1038.623c.203 1.218 1.257 2.111 2.492 2.111h.3692c.2804 1.0895 1.2696 1.8947 2.4468 1.8947 1.3952 0 2.5263-1.131 2.5263-2.5263s-1.131-2.5263-2.5263-2.5263c-1.1772 0-2.1664.805-2.4468 1.8947h-.3692a1.263 1.263 0 0 1-1.246-1.0555l-.1037-.623A2.52 2.52 0 0 0 13.9607 12a2.52 2.52 0 0 0 .821-1.4794l.1038-.623a1.263 1.263 0 0 1 1.2459-1.0555h2.8955c.2805 1.0896 1.2696 1.8947 2.4468 1.8947 1.3952 0 2.5263-1.131 2.5263-2.5263s-1.131-2.5263-2.5263-2.5263m0 1.2632a1.263 1.263 0 0 1 1.2631 1.2631 1.263 1.263 0 0 1-1.2631 1.2632 1.263 1.263 0 0 1-1.2632-1.2632 1.263 1.263 0 0 1 1.2632-1.2631M2.5263 10.7368A1.263 1.263 0 0 1 3.7895 12a1.263 1.263 0 0 1-1.2632 1.2632A1.263 1.263 0 0 1 1.2632 12a1.263 1.263 0 0 1 1.2631-1.2632m6.3158 0A1.263 1.263 0 0 1 10.1053 12a1.263 1.263 0 0 1-1.2632 1.2632A1.263 1.263 0 0 1 7.579 12a1.263 1.263 0 0 1 1.2632-1.2632m10.1053 3.7895a1.263 1.263 0 0 1 1.2631 1.2632 1.263 1.263 0 0 1-1.2631 1.2631 1.263 1.263 0 0 1-1.2632-1.2631 1.263 1.263 0 0 1 1.2632-1.2632"/>
      </g>
      
      <!-- Permanently visible label underneath the icon for high visibility -->
      <text x="525" y="506" font-family="Arial, sans-serif" font-size="7" font-weight="700" fill="#ffffff" text-anchor="middle">N8N</text>
    </g>
    <!-- Icon: wordpress -->
    <g class="float-2" style="animation-delay: 2.9000000000000004s;">
      <!-- Glowing circle border around icon -->
      <circle cx="570" cy="480" r="17" fill="#060c14" stroke="#1c2535" stroke-width="1" />
      <circle cx="570" cy="480" r="17" fill="none" stroke="#21759B" stroke-width="1.2" opacity="0.35" class="glow-ring" />
      
      <!-- Icon path -->
      <g transform="translate(558, 468) scale(1)" fill="#21759B">
        <path d="M21.469 6.825c.84 1.537 1.318 3.3 1.318 5.175 0 3.979-2.156 7.456-5.363 9.325l3.295-9.527c.615-1.54.82-2.771.82-3.864 0-.405-.026-.78-.07-1.11m-7.981.105c.647-.03 1.232-.105 1.232-.105.582-.075.514-.93-.067-.899 0 0-1.755.135-2.88.135-1.064 0-2.85-.15-2.85-.15-.585-.03-.661.855-.075.885 0 0 .54.061 1.125.09l1.68 4.605-2.37 7.08L5.354 6.9c.649-.03 1.234-.1 1.234-.1.585-.075.516-.93-.065-.896 0 0-1.746.138-2.874.138-.2 0-.438-.008-.69-.015C4.911 3.15 8.235 1.215 12 1.215c2.809 0 5.365 1.072 7.286 2.833-.046-.003-.091-.009-.141-.009-1.06 0-1.812.923-1.812 1.914 0 .89.513 1.643 1.06 2.531.411.72.89 1.643.89 2.977 0 .915-.354 1.994-.821 3.479l-1.075 3.585-3.9-11.61.001.014zM12 22.784c-1.059 0-2.081-.153-3.048-.437l3.237-9.406 3.315 9.087c.024.053.05.101.078.149-1.12.393-2.325.609-3.582.609M1.211 12c0-1.564.336-3.05.935-4.39L7.29 21.709C3.694 19.96 1.212 16.271 1.211 12M12 0C5.385 0 0 5.385 0 12s5.385 12 12 12 12-5.385 12-12S18.615 0 12 0"/>
      </g>
      
      <!-- Permanently visible label underneath the icon for high visibility -->
      <text x="570" y="506" font-family="Arial, sans-serif" font-size="7" font-weight="700" fill="#ffffff" text-anchor="middle">WORDPRESS</text>
    </g>
    <!-- Icon: visualstudiocode -->
    <g class="float-3" style="animation-delay: 3s;">
      <!-- Glowing circle border around icon -->
      <circle cx="615" cy="480" r="17" fill="#060c14" stroke="#1c2535" stroke-width="1" />
      <circle cx="615" cy="480" r="17" fill="none" stroke="#007ACC" stroke-width="1.2" opacity="0.35" class="glow-ring" />
      
      <!-- Icon path -->
      <g transform="translate(603, 468) scale(1)" fill="#007ACC">
        <path d="M23.15 2.587L18.21.21a1.494 1.494 0 0 0-1.705.29l-9.46 8.63-4.12-3.128a.999.999 0 0 0-1.276.057L.327 7.261A1 1 0 0 0 .326 8.74L3.899 12 .326 15.26a1 1 0 0 0 .001 1.479L1.65 17.94a.999.999 0 0 0 1.276.057l4.12-3.128 9.46 8.63a1.492 1.492 0 0 0 1.704.29l4.942-2.377A1.5 1.5 0 0 0 24 20.06V3.939a1.5 1.5 0 0 0-.85-1.352zm-5.146 14.861L10.826 12l7.178-5.448v10.896z"/>
      </g>
      
      <!-- Permanently visible label underneath the icon for high visibility -->
      <text x="615" y="506" font-family="Arial, sans-serif" font-size="7" font-weight="700" fill="#ffffff" text-anchor="middle">VS CODE</text>
    </g>
    <!-- Icon: postman -->
    <g class="float-4" style="animation-delay: 3.1s;">
      <!-- Glowing circle border around icon -->
      <circle cx="660" cy="480" r="17" fill="#060c14" stroke="#1c2535" stroke-width="1" />
      <circle cx="660" cy="480" r="17" fill="none" stroke="#FF6C37" stroke-width="1.2" opacity="0.35" class="glow-ring" />
      
      <!-- Icon path -->
      <g transform="translate(648, 468) scale(1)" fill="#FF6C37">
        <path d="M13.527.099C6.955-.744.942 3.9.099 10.473c-.843 6.572 3.8 12.584 10.373 13.428 6.573.843 12.587-3.801 13.428-10.374C24.744 6.955 20.101.943 13.527.099zm2.471 7.485a.855.855 0 0 0-.593.25l-4.453 4.453-.307-.307-.643-.643c4.389-4.376 5.18-4.418 5.996-3.753zm-4.863 4.861l4.44-4.44a.62.62 0 1 1 .847.903l-4.699 4.125-.588-.588zm.33.694l-1.1.238a.06.06 0 0 1-.067-.032.06.06 0 0 1 .01-.073l.645-.645.512.512zm-2.803-.459l1.172-1.172.879.878-1.979.426a.074.074 0 0 1-.085-.039.072.072 0 0 1 .013-.093zm-3.646 6.058a.076.076 0 0 1-.069-.083.077.077 0 0 1 .022-.046h.002l.946-.946 1.222 1.222-2.123-.147zm2.425-1.256a.228.228 0 0 0-.117.256l.203.865a.125.125 0 0 1-.211.117h-.003l-.934-.934-.294-.295 3.762-3.758 1.82-.393.874.874c-1.255 1.102-2.971 2.201-5.1 3.268zm5.279-3.428h-.002l-.839-.839 4.699-4.125a.952.952 0 0 0 .119-.127c-.148 1.345-2.029 3.245-3.977 5.091zm3.657-6.46l-.003-.002a1.822 1.822 0 0 1 2.459-2.684l-1.61 1.613a.119.119 0 0 0 0 .169l1.247 1.247a1.817 1.817 0 0 1-2.093-.343zm2.578 0a1.714 1.714 0 0 1-.271.218h-.001l-1.207-1.207 1.533-1.533c.661.72.637 1.832-.054 2.522zM18.855 6.05a.143.143 0 0 0-.053.157.416.416 0 0 1-.053.45.14.14 0 0 0 .023.197.141.141 0 0 0 .084.03.14.14 0 0 0 .106-.05.691.691 0 0 0 .087-.751.138.138 0 0 0-.194-.033z"/>
      </g>
      
      <!-- Permanently visible label underneath the icon for high visibility -->
      <text x="660" y="506" font-family="Arial, sans-serif" font-size="7" font-weight="700" fill="#ffffff" text-anchor="middle">POSTMAN</text>
    </g>
    <!-- Icon: php -->
    <g class="float-1" style="animation-delay: 3.2s;">
      <!-- Glowing circle border around icon -->
      <circle cx="705" cy="480" r="17" fill="#060c14" stroke="#1c2535" stroke-width="1" />
      <circle cx="705" cy="480" r="17" fill="none" stroke="#777BB4" stroke-width="1.2" opacity="0.35" class="glow-ring" />
      
      <!-- Icon path -->
      <g transform="translate(693, 468) scale(1)" fill="#777BB4">
        <path d="M7.01 10.207h-.944l-.515 2.648h.838c.556 0 .97-.105 1.242-.314.272-.21.455-.559.55-1.049.092-.47.05-.802-.124-.995-.175-.193-.523-.29-1.047-.29zM12 5.688C5.373 5.688 0 8.514 0 12s5.373 6.313 12 6.313S24 15.486 24 12c0-3.486-5.373-6.312-12-6.312zm-3.26 7.451c-.261.25-.575.438-.917.551-.336.108-.765.164-1.285.164H5.357l-.327 1.681H3.652l1.23-6.326h2.65c.797 0 1.378.209 1.744.628.366.418.476 1.002.33 1.752a2.836 2.836 0 0 1-.305.847c-.143.255-.33.49-.561.703zm4.024.715l.543-2.799c.063-.318.039-.536-.068-.651-.107-.116-.336-.174-.687-.174H11.46l-.704 3.625H9.388l1.23-6.327h1.367l-.327 1.682h1.218c.767 0 1.295.134 1.586.401s.378.7.263 1.299l-.572 2.944h-1.389zm7.597-2.265a2.782 2.782 0 0 1-.305.847c-.143.255-.33.49-.561.703a2.44 2.44 0 0 1-.917.551c-.336.108-.765.164-1.286.164h-1.18l-.327 1.682h-1.378l1.23-6.326h2.649c.797 0 1.378.209 1.744.628.366.417.477 1.001.331 1.751zM17.766 10.207h-.943l-.516 2.648h.838c.557 0 .971-.105 1.242-.314.272-.21.455-.559.551-1.049.092-.47.049-.802-.125-.995s-.524-.29-1.047-.29z"/>
      </g>
      
      <!-- Permanently visible label underneath the icon for high visibility -->
      <text x="705" y="506" font-family="Arial, sans-serif" font-size="7" font-weight="700" fill="#ffffff" text-anchor="middle">PHP</text>
    </g>
    <!-- Icon: html5 -->
    <g class="float-2" style="animation-delay: 3.3000000000000003s;">
      <!-- Glowing circle border around icon -->
      <circle cx="750" cy="480" r="17" fill="#060c14" stroke="#1c2535" stroke-width="1" />
      <circle cx="750" cy="480" r="17" fill="none" stroke="#E34F26" stroke-width="1.2" opacity="0.35" class="glow-ring" />
      
      <!-- Icon path -->
      <g transform="translate(738, 468) scale(1)" fill="#E34F26">
        <path d="M1.5 0h21l-1.91 21.563L11.977 24l-8.564-2.438L1.5 0zm7.031 9.75l-.232-2.718 10.059.003.23-2.622L5.412 4.41l.698 8.01h9.126l-.326 3.426-2.91.804-2.955-.81-.188-2.11H6.248l.33 4.171L12 19.351l5.379-1.443.744-8.157H8.531z"/>
      </g>
      
      <!-- Permanently visible label underneath the icon for high visibility -->
      <text x="750" y="506" font-family="Arial, sans-serif" font-size="7" font-weight="700" fill="#ffffff" text-anchor="middle">HTML5</text>
    </g>

  <!-- Footer -->
  <rect x="0" y="565" width="960" height="35" fill="#01050b" />
  <line x1="0" y1="565" x2="960" y2="565" stroke="#101824" stroke-width="1" />
  <text x="30" y="587" font-family="'Fira Code', monospace" font-size="9" fill="#73d2de">30+ LOCAL VECTOR LOGOS • CYBERPUNK BLUEPRINT • FULL STACK ARCHITECTURE</text>
  <text x="930" y="587" font-family="'Fira Code', monospace" font-size="9" fill="#73d2de" text-anchor="end">islamsaobia.vercel.app</text>
</svg>